<svg xmlns="http://www.w3.org/2000/svg" xmlns:xlink="http://www.w3.org/1999/xlink" version="1.1" x="0px" y="0px" viewBox="0 0 100 125" enable-background="new 0 0 100 100" xml:space="preserve"><g><polygon fill="none" stroke="#000000" stroke-width="1.25" stroke-linecap="square" points="71.459,23.75 71.459,23.708    71.455,23.663 71.455,23.621 71.451,23.576 71.447,23.535 71.443,23.488 71.439,23.447 71.432,23.401 71.428,23.361 71.42,23.318    71.412,23.273 71.402,23.231 71.395,23.189 71.383,23.148 71.371,23.106 71.359,23.065 71.348,23.02 71.338,22.982 71.322,22.94    71.307,22.898 71.293,22.857 71.275,22.815 71.262,22.777 71.244,22.736 71.223,22.698 71.205,22.657 71.186,22.618 71.168,22.581    71.145,22.542 71.125,22.504 71.102,22.467 71.08,22.429 71.057,22.391 71.035,22.357 71.008,22.319 70.98,22.286 70.959,22.25    70.932,22.217 70.902,22.179 70.875,22.149 70.85,22.115 70.818,22.081 70.789,22.051 70.758,22.017 70.729,21.986 70.697,21.957    70.668,21.926 70.633,21.896 70.604,21.869 70.568,21.839 70.535,21.813 70.5,21.786 70.467,21.76 70.434,21.733 70.398,21.707    70.361,21.684 70.326,21.657 70.289,21.634 70.25,21.611 70.213,21.589 70.174,21.566 70.137,21.547 70.1,21.528 70.063,21.505    70.02,21.487 69.982,21.471 69.939,21.452 69.902,21.438 69.861,21.418 69.82,21.403 69.777,21.389 69.74,21.377 69.697,21.361    69.656,21.351 69.615,21.339 69.574,21.328 69.527,21.316 69.486,21.309 69.445,21.298 69.398,21.29 69.357,21.282 69.316,21.278    69.273,21.271 69.229,21.267 69.188,21.26 69.143,21.26 69.1,21.256 69.055,21.252 69.014,21.252 68.969,21.252 68.926,21.252    68.881,21.252 68.84,21.252 68.795,21.256 68.752,21.26 68.707,21.263 68.666,21.267 68.619,21.275 68.578,21.278 68.535,21.286    68.49,21.293 68.449,21.301 68.408,21.313 68.367,21.324 68.324,21.332 68.283,21.343 68.238,21.357 68.195,21.369 68.158,21.385    68.117,21.395 68.074,21.411 68.033,21.426 67.994,21.445 67.953,21.461 67.912,21.479 67.875,21.498 67.836,21.517 67.799,21.536    67.76,21.558 67.719,21.578 67.68,21.6 67.646,21.623 67.609,21.645 67.572,21.668 67.537,21.694 67.5,21.717 67.465,21.743    67.432,21.771 67.396,21.796 67.363,21.823 67.33,21.854 67.295,21.88 67.266,21.91 67.234,21.941 67.199,21.971 67.17,22.001    67.141,22.036 67.109,22.065 67.084,22.099 67.053,22.13 67.025,22.164 67,22.198 66.973,22.232 66.947,22.266 66.92,22.304    66.893,22.338 66.871,22.376 66.848,22.41 66.826,22.448 66.803,22.486 66.779,22.523 66.758,22.563 66.738,22.599 66.721,22.638    66.701,22.679 66.682,22.717 66.662,22.755 66.648,22.796 66.633,22.838 66.613,22.875 66.602,22.917 66.586,22.959 66.572,23    66.561,23.042 66.551,23.084 66.539,23.125 66.527,23.167 66.516,23.212 66.508,23.254 66.5,23.295 66.492,23.338 66.484,23.383    66.479,23.424 66.475,23.47 66.471,23.512 66.467,23.554 66.463,23.599 66.459,23.641 66.459,23.686 66.459,23.728 66.459,23.772    66.459,23.814 66.459,23.859 66.463,23.901 66.467,23.947 66.471,23.988 66.475,24.034 66.479,24.076 66.484,24.117 66.492,24.162    66.5,24.204 66.508,24.245 66.516,24.291 66.527,24.333 66.539,24.375 66.551,24.416 66.561,24.458 66.572,24.5 66.586,24.542    66.602,24.583 66.613,24.625 66.633,24.666 66.648,24.704 66.662,24.746 66.682,24.784 66.701,24.825 66.721,24.863 66.738,24.9    66.758,24.941 66.779,24.98 66.803,25.018 66.826,25.052 66.848,25.089 66.871,25.128 66.893,25.162 66.92,25.2 66.947,25.234    66.973,25.268 67,25.302 67.025,25.336 67.053,25.37 67.084,25.404 67.109,25.435 67.141,25.468 67.17,25.498 67.199,25.529    67.234,25.559 67.266,25.589 67.295,25.62 67.33,25.646 67.363,25.677 67.396,25.703 67.432,25.729 67.465,25.756 67.5,25.783    67.537,25.805 67.572,25.832 67.609,25.854 67.646,25.877 67.68,25.899 67.719,25.922 67.76,25.945 67.799,25.964 67.836,25.983    67.875,26.002 67.912,26.021 67.953,26.039 67.994,26.056 68.033,26.074 68.074,26.089 68.117,26.105 68.158,26.119 68.195,26.131    68.238,26.146 68.283,26.158 68.324,26.168 68.367,26.18 68.408,26.191 68.449,26.198 68.49,26.206 68.535,26.214 68.578,26.222    68.619,26.229 68.666,26.233 68.707,26.237 68.752,26.241 68.795,26.245 68.84,26.249 68.881,26.249 68.926,26.252 68.969,26.252    69.014,26.252 69.055,26.249 69.1,26.249 69.143,26.245 69.188,26.241 69.229,26.237 69.273,26.229 69.316,26.226 69.357,26.218    69.398,26.21 69.445,26.202 69.486,26.195 69.527,26.184 69.574,26.172 69.615,26.165 69.656,26.15 69.697,26.139 69.74,26.127    69.777,26.111 69.82,26.097 69.861,26.082 69.902,26.066 69.939,26.048 69.982,26.033 70.02,26.013 70.063,25.994 70.1,25.976    70.137,25.954 70.174,25.934 70.213,25.911 70.25,25.888 70.289,25.866 70.326,25.842 70.361,25.82 70.398,25.793 70.434,25.767    70.467,25.744 70.5,25.718 70.535,25.687 70.568,25.661 70.604,25.635 70.633,25.604 70.668,25.574 70.697,25.544 70.729,25.514    70.758,25.484 70.789,25.45 70.818,25.419 70.85,25.389 70.875,25.355 70.902,25.321 70.932,25.287 70.959,25.253 70.98,25.215    71.008,25.181 71.035,25.146 71.057,25.109 71.08,25.071 71.102,25.036 71.125,24.995 71.145,24.957 71.168,24.919 71.186,24.882    71.205,24.843 71.223,24.806 71.244,24.764 71.262,24.727 71.275,24.685 71.293,24.644 71.307,24.601 71.322,24.563 71.338,24.522    71.348,24.48 71.359,24.439 71.371,24.397 71.383,24.353 71.395,24.311 71.402,24.269 71.412,24.227 71.42,24.186 71.428,24.139    71.432,24.098 71.439,24.056 71.443,24.011 71.447,23.969 71.451,23.924 71.455,23.883 71.455,23.837 71.459,23.795  "/><polygon fill="none" stroke="#000000" stroke-width="1.25" stroke-linecap="square" points="58.75,27.5 58.75,27.478 58.75,27.455    58.75,27.436 58.746,27.414 58.746,27.391 58.742,27.368 58.742,27.349 58.738,27.327 58.732,27.304 58.73,27.284 58.727,27.262    58.723,27.24 58.719,27.221 58.715,27.198 58.707,27.179 58.699,27.157 58.697,27.138 58.689,27.115 58.682,27.095 58.674,27.073    58.666,27.055 58.658,27.032 58.65,27.012 58.643,26.994 58.631,26.975 58.623,26.953 58.617,26.933 58.605,26.914 58.594,26.896    58.582,26.876 58.57,26.858 58.559,26.838 58.547,26.819 58.537,26.805 58.525,26.785 58.51,26.767 58.498,26.751 58.486,26.733    58.473,26.717 58.457,26.698 58.445,26.684 58.432,26.664 58.416,26.649 58.4,26.634 58.385,26.619 58.371,26.604 58.355,26.588    58.34,26.574 58.32,26.558 58.307,26.546 58.287,26.532 58.271,26.517 58.252,26.505 58.238,26.49 58.219,26.479 58.199,26.467    58.184,26.456 58.166,26.441 58.148,26.43 58.129,26.418 58.109,26.407 58.09,26.399 58.072,26.387 58.053,26.377 58.029,26.369    58.01,26.361 57.992,26.351 57.973,26.343 57.951,26.335 57.932,26.328 57.912,26.32 57.891,26.312 57.871,26.305 57.848,26.301    57.83,26.293 57.807,26.29 57.787,26.282 57.764,26.278 57.742,26.274 57.723,26.271 57.701,26.267 57.678,26.263 57.658,26.259    57.635,26.259 57.613,26.256 57.59,26.252 57.572,26.252 57.549,26.252 57.527,26.252 57.504,26.252 57.484,26.252 57.461,26.252    57.439,26.252 57.416,26.252 57.396,26.256 57.375,26.256 57.352,26.259 57.334,26.263 57.311,26.267 57.287,26.267 57.27,26.271    57.246,26.278 57.223,26.282 57.205,26.286 57.182,26.29 57.162,26.297 57.141,26.305 57.121,26.308 57.098,26.316 57.08,26.324    57.059,26.332 57.039,26.339 57.02,26.347 56.996,26.358 56.979,26.365 56.959,26.373 56.939,26.385 56.92,26.391 56.898,26.403    56.883,26.415 56.863,26.426 56.844,26.438 56.826,26.448 56.809,26.46 56.787,26.471 56.77,26.486 56.754,26.498 56.734,26.509    56.721,26.524 56.701,26.54 56.686,26.55 56.67,26.566 56.652,26.581 56.637,26.596 56.621,26.611 56.605,26.626 56.592,26.641    56.576,26.657 56.561,26.676 56.551,26.69 56.535,26.707 56.52,26.725 56.508,26.739 56.492,26.759 56.482,26.774 56.471,26.792    56.455,26.812 56.443,26.831 56.434,26.851 56.422,26.869 56.41,26.887 56.402,26.907 56.391,26.926 56.379,26.945 56.371,26.963    56.359,26.982 56.354,27.005 56.346,27.024 56.338,27.043 56.33,27.062 56.318,27.085 56.314,27.103 56.307,27.126 56.299,27.146    56.295,27.167 56.289,27.19 56.285,27.209 56.277,27.232 56.273,27.25 56.27,27.274 56.266,27.296 56.262,27.315 56.262,27.338    56.258,27.36 56.256,27.38 56.256,27.402 56.252,27.425 56.252,27.447 56.252,27.467 56.252,27.489 56.252,27.512 56.252,27.534    56.252,27.554 56.252,27.577 56.256,27.599 56.256,27.622 56.258,27.64 56.262,27.664 56.262,27.686 56.266,27.706 56.27,27.728    56.273,27.751 56.277,27.77 56.285,27.792 56.289,27.811 56.295,27.834 56.299,27.854 56.307,27.875 56.314,27.895 56.318,27.917    56.33,27.937 56.338,27.958 56.346,27.978 56.354,27.996 56.359,28.02 56.371,28.039 56.379,28.057 56.391,28.076 56.402,28.095    56.41,28.114 56.422,28.133 56.434,28.151 56.443,28.171 56.455,28.189 56.471,28.208 56.482,28.224 56.492,28.242 56.508,28.257    56.52,28.277 56.535,28.295 56.551,28.311 56.561,28.326 56.576,28.344 56.592,28.36 56.605,28.375 56.621,28.39 56.637,28.406    56.652,28.42 56.67,28.435 56.686,28.447 56.701,28.462 56.721,28.478 56.734,28.488 56.754,28.504 56.77,28.515 56.787,28.53    56.809,28.541 56.826,28.554 56.844,28.564 56.863,28.576 56.883,28.586 56.898,28.599 56.92,28.606 56.939,28.617 56.959,28.629    56.979,28.637 56.996,28.645 57.02,28.656 57.039,28.663 57.059,28.67 57.08,28.678 57.098,28.686 57.121,28.693 57.141,28.697    57.162,28.705 57.182,28.708 57.205,28.716 57.223,28.72 57.246,28.724 57.27,28.727 57.287,28.731 57.311,28.735 57.334,28.739    57.352,28.743 57.375,28.743 57.396,28.747 57.416,28.75 57.439,28.75 57.461,28.75 57.484,28.75 57.504,28.75 57.527,28.75    57.549,28.75 57.572,28.75 57.59,28.747 57.613,28.747 57.635,28.743 57.658,28.743 57.678,28.739 57.701,28.735 57.723,28.731    57.742,28.727 57.764,28.724 57.787,28.716 57.807,28.712 57.83,28.708 57.848,28.7 57.871,28.693 57.891,28.689 57.912,28.682    57.932,28.674 57.951,28.667 57.973,28.659 57.992,28.652 58.01,28.641 58.029,28.633 58.053,28.621 58.072,28.613 58.09,28.603    58.109,28.591 58.129,28.583 58.148,28.568 58.166,28.561 58.184,28.546 58.199,28.533 58.219,28.523 58.238,28.511 58.252,28.497    58.271,28.484 58.287,28.47 58.307,28.455 58.32,28.443 58.34,28.428 58.355,28.413 58.371,28.397 58.385,28.383 58.4,28.368    58.416,28.352 58.432,28.334 58.445,28.318 58.457,28.303 58.473,28.284 58.486,28.269 58.498,28.251 58.51,28.235 58.525,28.216    58.537,28.197 58.547,28.179 58.559,28.159 58.57,28.145 58.582,28.125 58.594,28.106 58.605,28.088 58.617,28.068 58.623,28.046    58.631,28.027 58.643,28.008 58.65,27.988 58.658,27.966 58.666,27.948 58.674,27.929 58.682,27.906 58.689,27.887 58.697,27.864    58.699,27.846 58.707,27.823 58.715,27.803 58.719,27.781 58.723,27.758 58.727,27.739 58.73,27.716 58.732,27.694 58.738,27.675    58.742,27.653 58.742,27.63 58.746,27.61 58.746,27.587 58.75,27.565 58.75,27.546 58.75,27.523  "/><polygon points="52.465,64.938 52.48,64.872 52.492,64.809 52.504,64.748 52.516,64.684 52.523,64.619 52.535,64.554 52.541,64.49    52.545,64.426 52.553,64.361 52.557,64.298 52.557,64.233 52.561,64.168 52.561,64.104 52.561,64.04 52.557,63.976 52.557,63.911    52.549,63.847 52.545,63.782 52.537,63.718 52.531,63.653 52.523,63.59 52.516,63.525 52.504,63.46 52.492,63.396 52.477,63.336    52.465,63.272 52.451,63.212 52.432,63.146 52.416,63.086 52.396,63.022 52.379,62.961 52.355,62.901 52.338,62.84 52.314,62.779    52.291,62.719 52.266,62.658 52.238,62.602 52.213,62.541 52.186,62.484 52.156,62.428 52.125,62.37 52.096,62.311 52.064,62.257    52.031,62.201 51.996,62.144 51.963,62.091 51.924,62.038 51.891,61.984 51.854,61.932 51.814,61.879 51.773,61.829 51.736,61.776    51.693,61.728 51.652,61.678 51.605,61.633 51.564,61.584 51.52,61.538 51.475,61.489 51.43,61.443 51.383,61.402 51.334,61.355    51.289,61.314 51.24,61.273 51.188,61.231 51.137,61.19 51.084,61.152 51.035,61.114 50.982,61.076 50.929,61.038 50.876,61.005    50.819,60.97 50.766,60.937 50.709,60.902 50.653,60.872 50.595,60.842 50.54,60.812 50.483,60.781 50.422,60.755 50.365,60.728    50.305,60.702 50.244,60.675 50.188,60.652 50.126,60.63 50.066,60.611 50.001,60.588 49.941,60.569 49.881,60.551 49.816,60.535    49.756,60.521 49.691,60.501 49.631,60.49 49.566,60.476 49.503,60.463 49.438,60.452 49.374,60.444 49.314,60.437 49.248,60.429    49.185,60.421 49.12,60.417 49.055,60.414 48.991,60.41 48.927,60.406 48.862,60.406 48.798,60.406 48.73,60.41 48.669,60.414    48.602,60.417 48.54,60.421 48.473,60.429 48.413,60.437 48.347,60.444 48.284,60.452 48.219,60.463 48.155,60.476 48.094,60.49    48.03,60.501 47.965,60.516 47.905,60.535 47.841,60.551 47.78,60.569 20.615,68.861 20.76,68.037 20.919,67.216 21.093,66.398    21.278,65.58 21.483,64.768 21.695,63.956 21.925,63.153 22.171,62.352 22.43,61.558 22.698,60.763 22.985,59.975 23.284,59.195    23.595,58.416 23.92,57.644 24.261,56.879 24.612,56.118 24.98,55.364 25.359,54.619 25.752,53.878 26.153,53.147 26.573,52.421    27.001,51.701 27.444,50.989 27.898,50.287 28.363,49.589 28.844,48.904 29.333,48.227 29.836,47.553 30.351,46.895 30.877,46.24    31.41,45.6 31.96,44.964 32.52,44.339 33.087,43.726 33.667,43.121 34.256,42.527 38.496,54.4 38.526,54.483 38.561,54.563    38.594,54.646 38.628,54.726 38.667,54.805 38.704,54.884 38.742,54.96 38.784,55.039 38.825,55.115 38.866,55.19 38.912,55.266    38.957,55.343 39.006,55.418 39.056,55.49 39.104,55.562 39.154,55.634 39.207,55.702 39.261,55.773 39.318,55.842 39.374,55.91    39.427,55.974 39.488,56.039 39.548,56.107 39.608,56.167 39.669,56.231 39.729,56.292 39.794,56.354 39.858,56.409 39.926,56.471    39.991,56.527 40.059,56.584 40.127,56.637 40.198,56.689 40.268,56.743 40.339,56.792 40.411,56.841 40.487,56.891 40.559,56.936    40.634,56.981 40.709,57.026 40.786,57.067 40.866,57.109 40.941,57.151 41.02,57.189 41.1,57.228 41.179,57.266 41.259,57.299    41.342,57.333 41.421,57.364 41.504,57.394 41.588,57.425 41.671,57.45 41.754,57.477 41.838,57.504 41.921,57.527 42.008,57.549    42.092,57.567 42.179,57.587 42.265,57.605 42.349,57.62 42.436,57.636 42.523,57.647 42.61,57.658 42.696,57.666 42.784,57.678    42.871,57.682 42.959,57.688 43.045,57.692 43.136,57.692 43.223,57.696 43.31,57.692 43.396,57.692 43.484,57.688 43.571,57.682    43.659,57.674 43.746,57.666 43.833,57.655 43.919,57.644 44.006,57.632 44.093,57.617 44.181,57.603 44.265,57.583 44.351,57.563    44.438,57.545 44.521,57.523 44.604,57.5 44.688,57.473 44.775,57.447 44.854,57.417 44.938,57.39 45.021,57.36 45.104,57.326    45.184,57.292 45.264,57.257 45.343,57.22 45.422,57.182 45.501,57.144 45.577,57.103 45.656,57.06 45.732,57.019 45.808,56.974    45.88,56.928 45.956,56.879 46.028,56.833 46.1,56.784 46.171,56.731 46.244,56.678 46.312,56.626 46.38,56.572 46.448,56.516    46.516,56.459 46.581,56.398 46.644,56.342 46.708,56.28 46.77,56.22 46.834,56.156 46.891,56.092 46.952,56.028 47.008,55.963    47.064,55.895 57.834,43.035 57.887,42.966 57.943,42.901 57.992,42.834 58.045,42.762 58.094,42.694 58.145,42.625 58.188,42.553    58.234,42.481 58.279,42.406 58.324,42.334 58.367,42.258 58.408,42.186 58.445,42.11 58.482,42.031 58.521,41.955 58.559,41.875    58.594,41.8 58.627,41.721 58.658,41.641 58.689,41.562 58.719,41.481 58.746,41.399 58.771,41.32 58.795,41.237 58.82,41.153    58.844,41.07 58.861,40.99 58.881,40.907 58.9,40.824 58.916,40.737 58.932,40.653 58.945,40.57 58.957,40.483 58.965,40.399    58.977,40.313 58.982,40.229 58.986,40.142 58.994,40.059 58.998,39.972 58.998,39.884 59.037,37.008 59.037,36.963 59.033,36.921    59.033,36.879 59.033,36.834 59.029,36.792 59.025,36.747 59.021,36.706 59.014,36.66 59.01,36.619 59.002,36.573 58.994,36.532    58.986,36.489 58.98,36.448 58.969,36.403 58.957,36.361 58.949,36.32 58.934,36.278 58.924,36.237 58.912,36.195 58.896,36.153    58.881,36.111 58.865,36.07 58.852,36.031 58.832,35.99 58.816,35.952 58.797,35.911 58.779,35.873 58.76,35.834 58.738,35.797    58.719,35.759 58.697,35.722 58.674,35.683 58.65,35.646 58.627,35.608 58.605,35.574 58.578,35.537 58.557,35.502 58.529,35.468    58.504,35.434 58.473,35.396 58.445,35.366 58.42,35.331 58.389,35.298 58.359,35.268 58.328,35.237 58.299,35.203 58.268,35.173    58.238,35.146 58.203,35.116 58.174,35.085 58.141,35.059 58.105,35.028 58.072,35.002 58.037,34.976 58.002,34.949 57.965,34.927    57.932,34.9 57.895,34.878 57.855,34.854 57.822,34.833 57.783,34.809 57.746,34.786 57.705,34.768 57.666,34.75 57.629,34.73    57.59,34.707 57.549,34.692 57.512,34.673 57.469,34.658 57.428,34.644 57.389,34.628 57.35,34.613 57.307,34.597 57.266,34.586    57.223,34.571 57.182,34.56 57.141,34.549 57.096,34.541 57.055,34.529 57.012,34.522 56.967,34.514 56.924,34.506 56.883,34.5    56.838,34.496 56.795,34.492 56.754,34.488 56.709,34.484 56.668,34.479 56.621,34.477 56.58,34.477 56.535,34.477 53.125,34.477    53.076,34.477 53.025,34.477 52.977,34.479 52.928,34.484 52.883,34.488 52.834,34.492 52.783,34.5 52.738,34.502 52.689,34.51    52.643,34.518 52.594,34.526 52.545,34.537 52.5,34.549 52.451,34.56 52.404,34.571 52.359,34.586 52.311,34.597 52.266,34.613    52.221,34.628 52.174,34.644 52.129,34.662 52.084,34.677 52.039,34.695 51.992,34.715 51.951,34.738 51.906,34.756 51.863,34.778    51.822,34.802 51.777,34.825 51.736,34.847 51.693,34.874 51.652,34.896 51.613,34.923 51.572,34.949 51.531,34.979 51.492,35.006    51.455,35.036 51.414,35.063 51.375,35.093 51.338,35.124 51.303,35.158 51.266,35.188 51.232,35.222 51.199,35.256 51.16,35.291    51.127,35.324 51.096,35.358 51.063,35.396 51.031,35.431 50.997,35.468 50.967,35.506 50.937,35.544 50.906,35.581 50.88,35.62    50.849,35.661 50.823,35.699 50.796,35.741 50.77,35.782 50.744,35.824 50.721,35.865 50.694,35.907 50.675,35.948 50.653,35.99    50.63,36.035 50.607,36.077 50.588,36.123 50.57,36.168 50.551,36.21 50.532,36.255 50.516,36.3 50.502,36.347 50.487,36.395    50.471,36.441 50.457,36.486 50.441,36.532 50.429,36.58 50.418,36.626 50.411,36.676 50.4,36.721 50.392,36.77 50.384,36.815    50.376,36.865 50.369,36.914 50.365,36.959 50.358,37.008 50.354,37.058 50.354,37.107 50.351,37.152 50.351,37.201 50.351,37.25    50.351,37.3 50.351,37.349 50.354,37.394 50.354,37.443 50.358,37.493 50.365,37.542 50.369,37.587 50.376,37.636 50.38,37.686    50.392,37.731 50.4,37.78 50.407,37.825 50.418,37.875 50.429,37.921 50.441,37.97 50.457,38.015 50.467,38.061 50.483,38.106    50.498,38.155 50.516,38.201 50.532,38.246 50.551,38.291 50.57,38.333 50.588,38.378 50.607,38.424 50.63,38.466 50.65,38.511    50.671,38.553 50.694,38.595 50.721,38.64 50.744,38.682 50.77,38.719 50.796,38.761 50.823,38.802 50.849,38.841 50.876,38.882    50.906,38.92 50.937,38.958 50.967,38.995 50.997,39.034 51.027,39.071 51.063,39.105 51.092,39.143 51.127,39.177 51.16,39.211    51.195,39.245 51.232,39.279 51.266,39.313 51.303,39.343 51.338,39.377 51.375,39.408 51.414,39.439 51.451,39.469 51.492,39.496    51.531,39.522 51.568,39.552 51.609,39.579 51.652,39.605 51.693,39.628 51.736,39.654 51.777,39.677 51.818,39.699 51.863,39.723    51.906,39.746 51.951,39.768 51.992,39.786 52.039,39.805 52.084,39.825 52.129,39.84 52.174,39.858 52.221,39.873 52.266,39.888    52.311,39.904 52.355,39.919 52.404,39.931 52.451,39.941 52.496,39.953 52.545,39.964 52.594,39.975 52.641,39.983 52.689,39.991    52.734,39.998 52.783,40.006 52.834,40.01 52.883,40.014 52.928,40.021 52.977,40.021 53.025,40.025 53.076,40.025 53.121,40.025    43.42,51.682 37.913,36.255 37.656,35.726 37.201,35.036 37.16,34.987 37.118,34.938 37.072,34.892 37.031,34.843 36.986,34.798    36.937,34.752 36.891,34.711 36.842,34.666 36.797,34.624 36.748,34.583 36.698,34.541 36.645,34.5 36.596,34.461 36.543,34.423    36.49,34.385 36.437,34.348 36.384,34.313 36.327,34.279 36.274,34.245 36.217,34.211 36.161,34.181 36.104,34.15 36.047,34.121    35.99,34.09 35.93,34.064 35.874,34.038 35.812,34.011 35.751,33.988 35.695,33.961 35.63,33.943 35.57,33.92 35.509,33.897    35.449,33.878 35.389,33.863 35.324,33.845 35.264,33.83 35.199,33.814 35.135,33.798 35.074,33.788 35.009,33.776 34.946,33.765    34.881,33.753 34.816,33.747 34.753,33.739 34.688,33.735 34.624,33.727 34.56,33.723 34.496,33.723 34.431,33.719 34.367,33.719    34.302,33.719 34.238,33.723 34.174,33.727 34.108,33.731 34.045,33.735 33.98,33.743 33.916,33.747 33.852,33.757 33.788,33.765    33.723,33.776 33.663,33.788 33.599,33.802 33.534,33.814 33.474,33.83 33.408,33.849 33.349,33.863 33.284,33.882 33.223,33.901    33.163,33.924 33.102,33.943 33.042,33.965 32.981,33.991 32.92,34.015 32.864,34.041 32.804,34.068 32.747,34.098 32.69,34.125    32.629,34.154 32.573,34.185 32.52,34.219 32.462,34.249 32.405,34.283 32.353,34.317 32.3,34.355 32.247,34.394 32.194,34.427    32.141,34.469 32.092,34.506 32.039,34.549 31.99,34.59 31.282,35.196 30.582,35.816 29.893,36.448 29.216,37.092 28.549,37.747    27.895,38.413 27.251,39.094 26.619,39.782 25.998,40.479 25.393,41.191 24.794,41.91 24.211,42.644 23.644,43.382 23.087,44.136    22.542,44.892 22.012,45.661 21.494,46.44 20.991,47.228 20.499,48.023 20.022,48.829 19.56,49.638 19.11,50.46 18.678,51.286    18.254,52.121 17.849,52.965 17.459,53.813 17.081,54.669 16.722,55.528 16.373,56.398 16.044,57.273 15.727,58.151 15.423,59.036    15.139,59.927 14.866,60.819 14.613,61.721 14.372,62.62 14.147,63.529 13.94,64.441 13.747,65.353 13.569,66.272 13.41,67.193    13.262,68.117 13.134,69.044 13.019,69.971 12.921,70.898 12.842,71.829 12.834,71.916 12.83,72.003 12.826,72.091 12.826,72.178    12.826,72.266 12.826,72.351 12.83,72.438 12.834,72.525 12.842,72.613 12.85,72.7 12.857,72.783 12.869,72.87 12.879,72.957    12.895,73.041 12.906,73.128 12.925,73.215 12.944,73.298 12.963,73.385 12.981,73.468 13.005,73.551 13.027,73.635 13.054,73.718    13.08,73.801 13.107,73.881 13.138,73.965 13.17,74.043 13.202,74.127 13.236,74.207 13.269,74.286 13.308,74.365 13.345,74.44    13.384,74.521 13.425,74.596 13.467,74.672 13.512,74.747 13.553,74.823 13.599,74.895 13.648,74.971 13.697,75.043 13.747,75.114    13.795,75.183 13.849,75.25 13.902,75.322 13.955,75.391 14.012,75.455 14.067,75.523 14.125,75.588 14.186,75.651 14.246,75.713    14.307,75.773 14.372,75.834 14.431,75.895 14.496,75.954 14.561,76.013 14.628,76.068 14.696,76.121 14.765,76.174 14.833,76.228    14.901,76.28 14.973,76.329 15.044,76.379 15.117,76.428 15.192,76.474 15.265,76.519 15.34,76.561 15.415,76.606 15.491,76.644    15.57,76.686 15.646,76.723 15.727,76.761 15.806,76.795 15.886,76.833 15.965,76.863 16.048,76.894 16.127,76.924 16.21,76.953    16.293,76.98 16.376,77.007 16.457,77.033 16.543,77.056 16.627,77.075 16.71,77.099 16.797,77.116 16.881,77.132 16.968,77.146    17.051,77.162 17.138,77.174 17.224,77.188 17.308,77.195 17.395,77.203 17.483,77.211 17.57,77.215 17.656,77.219 17.743,77.223    17.83,77.223 17.917,77.223 18.004,77.219 18.091,77.215 18.178,77.211 18.265,77.203 18.353,77.195 18.436,77.185 18.522,77.174    18.61,77.162 18.693,77.146 18.78,77.132 18.863,77.112 18.951,77.095 19.035,77.075 19.117,77.052 19.201,77.029 19.287,77.003    43.821,69.513 38.977,90.599 38.961,90.663 38.95,90.724 38.939,90.787 38.927,90.852 38.916,90.912 38.908,90.977 38.9,91.042    38.897,91.105 38.89,91.17 38.886,91.233 38.882,91.299 38.882,91.363 38.882,91.427 38.882,91.491 38.882,91.556 38.886,91.62    38.89,91.685 38.897,91.746 38.9,91.81 38.908,91.874 38.916,91.938 38.927,92.003 38.939,92.067 38.95,92.127 38.961,92.191    38.977,92.256 38.992,92.316 39.006,92.377 39.021,92.441 39.041,92.502 39.06,92.563 39.083,92.624 39.101,92.685 39.124,92.744    39.147,92.805 39.173,92.865 39.196,92.923 39.222,92.983 39.252,93.039 39.279,93.097 39.31,93.153 39.34,93.21 39.371,93.267    39.405,93.323 39.438,93.376 39.472,93.434 39.506,93.486 39.544,93.54 39.578,93.593 39.616,93.643 39.658,93.695 39.696,93.743    39.737,93.793 39.779,93.842 39.82,93.891 39.866,93.94 39.907,93.985 39.953,94.031 39.998,94.076 40.044,94.121 40.093,94.164    40.139,94.209 40.188,94.251 40.237,94.293 40.286,94.331 40.339,94.371 40.388,94.41 40.441,94.447 40.495,94.482 40.547,94.52    40.604,94.554 40.657,94.588 40.709,94.622 40.767,94.652 40.823,94.683 40.88,94.713 40.937,94.742 40.994,94.77 41.055,94.8    41.111,94.821 41.171,94.849 41.232,94.872 41.293,94.894 41.354,94.917 41.414,94.939 41.475,94.959 41.535,94.977 41.595,94.993    41.66,95.012 41.72,95.026 41.785,95.043 41.845,95.053 41.91,95.064 41.974,95.075 42.035,95.088 42.099,95.095 42.164,95.103    42.228,95.11 42.292,95.118 42.356,95.121 42.42,95.125 42.485,95.125 42.549,95.128 42.614,95.128 42.678,95.125 42.739,95.125    42.804,95.121 42.868,95.118 42.932,95.11 42.996,95.103 43.06,95.095 43.125,95.088 43.189,95.075 43.249,95.068 43.313,95.053    43.378,95.043 43.439,95.026 43.499,95.012 43.564,94.996 43.624,94.977 43.685,94.959 43.75,94.939 43.81,94.917 43.87,94.897    43.927,94.872 43.988,94.849 44.048,94.825 44.104,94.8 44.166,94.773 44.222,94.742 44.279,94.717 44.336,94.687 44.393,94.652    44.45,94.622 44.503,94.588 44.56,94.554 44.612,94.52 44.665,94.486 44.718,94.447 44.771,94.41 44.82,94.371 44.873,94.335    44.922,94.293 44.972,94.251 45.021,94.209 45.07,94.168 45.116,94.121 45.162,94.076 45.207,94.034 45.252,93.985 45.298,93.94    45.339,93.895 45.38,93.846 45.422,93.797 45.464,93.747 45.505,93.695 45.543,93.645 45.581,93.593 45.619,93.54 45.652,93.486    45.691,93.434 45.725,93.38 45.759,93.323 45.79,93.271 45.819,93.214 45.85,93.157 45.88,93.1 45.911,93.043 45.937,92.983    45.964,92.926 45.99,92.865 46.013,92.809 46.04,92.748 46.059,92.688 46.081,92.627 46.1,92.566 46.122,92.506 46.138,92.441    46.157,92.381 46.171,92.32 46.187,92.256  "/><polygon points="34.999,95.242 34.999,79.997 10,79.997 10,100 39.998,100 39.998,97.498  "/><g><path fill="none" stroke="#000000" stroke-width="1.25" stroke-linecap="square" d="M64.506,25.722v-0.035l-0.004-0.029    l-0.004-0.035v-0.031l-0.008-0.034l-0.004-0.03l-0.004-0.034l-0.008-0.031l-0.006-0.034L64.461,25.4l-0.008-0.034l-0.008-0.03    l-0.008-0.031l-0.008-0.034l-0.012-0.03l-0.012-0.031l-0.012-0.03l-0.01-0.03l-0.012-0.031l-0.012-0.031L64.35,25.06l-0.016-0.031    l-0.014-0.031l-0.016-0.026l-0.016-0.031l-0.014-0.03l-0.016-0.026l-0.016-0.031l-0.018-0.026l-0.016-0.027l-0.02-0.026    l-0.02-0.03l-0.018-0.027l-0.02-0.027l-0.02-0.022l-0.023-0.026l-0.018-0.027l-0.023-0.023l-0.021-0.026l-0.02-0.022l-0.023-0.023    l-0.021-0.026l-0.023-0.023l-0.025-0.022l-0.023-0.019l-0.023-0.023l-0.025-0.022l-0.027-0.02l-0.021-0.023l-0.027-0.019    l-0.025-0.018l-0.027-0.021l-0.025-0.018l-0.027-0.02l-0.031-0.014l-0.025-0.02L63.578,24.2l-0.031-0.019l-0.025-0.016    l-0.031-0.015l-0.029-0.015l-0.027-0.012l-0.029-0.015l-0.029-0.012l-0.031-0.014l-0.031-0.012l-0.029-0.012l-0.031-0.012    l-0.033-0.01l-0.031-0.008l-0.029-0.012l-0.029-0.008l-0.035-0.007l-0.029-0.008l-0.035-0.008l-0.031-0.007l-0.029-0.008    l-0.033-0.004l-0.031-0.003l-0.033-0.008l-0.035-0.004h-0.029l-0.035-0.004l-0.029-0.003h-0.035h-0.033h-0.031h-0.033H62.58    h-0.035l-0.033,0.003H62.48l-0.035,0.004l-0.029,0.004l-0.035,0.004l-0.027,0.004l-0.035,0.007l-0.031,0.004l-0.033,0.008    l-0.031,0.007L62.189,24l-0.031,0.007l-0.029,0.008l-0.033,0.012l-0.031,0.008l-0.031,0.01l-0.029,0.012l-0.031,0.012    l-0.029,0.012l-0.031,0.01l-0.029,0.012l-0.029,0.016l-0.031,0.015l-0.031,0.011l-0.025,0.016l-0.029,0.015l-0.031,0.019    l-0.027,0.016l-0.025,0.015l-0.031,0.018l-0.027,0.02l-0.025,0.016l-0.025,0.018l-0.027,0.02l-0.025,0.023l-0.027,0.02    l-0.023,0.018l-0.025,0.023l-0.023,0.022l-0.027,0.019l-0.021,0.022l-0.023,0.023l-0.023,0.026l-0.021,0.023l-0.021,0.023    l-0.023,0.022l-0.023,0.026l-0.02,0.023l-0.021,0.027l-0.02,0.026l-0.02,0.026l-0.018,0.027l-0.02,0.026l-0.02,0.026l-0.014,0.027    l-0.02,0.03L61.02,24.87L61,24.896l-0.016,0.031l-0.014,0.03l-0.016,0.027l-0.016,0.03l-0.01,0.03l-0.016,0.031l-0.012,0.031    l-0.012,0.03l-0.01,0.03l-0.012,0.031l-0.012,0.03l-0.012,0.031l-0.008,0.034l-0.012,0.03l-0.008,0.031l-0.008,0.03l-0.008,0.034    l-0.006,0.035l-0.004,0.03l-0.008,0.03l-0.004,0.035l-0.008,0.034l-0.004,0.03v0.031l-0.004,0.034l-0.004,0.034v0.031v0.034    l-0.004,0.034v0.031l0.004,0.034v0.035v0.03l0.004,0.034l0.004,0.031v0.034l0.004,0.03l0.008,0.035l0.004,0.034l0.008,0.03    l0.004,0.031l0.006,0.034l0.008,0.031l0.008,0.034l0.008,0.03l0.012,0.031l0.008,0.03l0.012,0.034l0.012,0.031l0.012,0.03    l0.01,0.03l0.012,0.031l0.012,0.03l0.016,0.03l0.01,0.031l0.016,0.026l0.016,0.031l0.014,0.03L61,26.739l0.02,0.031l0.016,0.026    l0.02,0.027l0.014,0.031l0.02,0.026l0.02,0.027l0.018,0.026l0.02,0.026l0.02,0.027l0.021,0.022l0.02,0.027l0.023,0.026    l0.023,0.023l0.021,0.022l0.021,0.023l0.023,0.023l0.023,0.022l0.021,0.022l0.027,0.023l0.023,0.023l0.025,0.019l0.023,0.022    l0.027,0.02l0.025,0.019l0.027,0.02l0.025,0.018l0.025,0.02l0.027,0.019l0.031,0.019l0.025,0.016l0.027,0.014l0.031,0.02    l0.029,0.015l0.025,0.015l0.031,0.012l0.031,0.015l0.029,0.015l0.029,0.012l0.031,0.011l0.029,0.012l0.031,0.012l0.029,0.01    l0.031,0.013l0.031,0.007l0.033,0.012l0.029,0.007l0.031,0.007l0.033,0.009l0.031,0.008l0.033,0.007l0.031,0.004l0.035,0.007    l0.027,0.004l0.035,0.004l0.029,0.003l0.035,0.004h0.031l0.033,0.005h0.035h0.029h0.033h0.031h0.033l0.035-0.005h0.029    l0.035-0.004l0.029-0.003l0.035-0.004l0.033-0.004l0.031-0.003l0.033-0.008l0.029-0.004l0.031-0.007l0.035-0.009l0.029-0.008    l0.035-0.006l0.029-0.008l0.029-0.012l0.031-0.012l0.033-0.007l0.031-0.011l0.029-0.012l0.031-0.011l0.031-0.016l0.029-0.011    l0.029-0.016l0.027-0.015l0.029-0.012l0.031-0.014l0.025-0.016l0.031-0.02l0.027-0.014l0.025-0.02l0.031-0.019l0.027-0.015    l0.025-0.019l0.027-0.019l0.025-0.019l0.027-0.02l0.021-0.022l0.027-0.02l0.025-0.022l0.023-0.023l0.023-0.019l0.025-0.022    l0.023-0.026l0.021-0.023l0.023-0.023l0.02-0.022l0.021-0.026l0.023-0.023l0.018-0.026l0.023-0.027l0.02-0.026l0.02-0.027    l0.018-0.026l0.02-0.027l0.02-0.027l0.016-0.026l0.018-0.03l0.016-0.026l0.016-0.031l0.014-0.027l0.016-0.03l0.016-0.031    l0.014-0.026l0.016-0.03l0.012-0.031l0.012-0.03l0.012-0.031l0.01-0.03l0.012-0.03l0.012-0.031l0.012-0.034l0.008-0.03    l0.008-0.031l0.008-0.034l0.008-0.03l0.008-0.031l0.006-0.034l0.008-0.03l0.004-0.035l0.004-0.03l0.008-0.034v-0.031l0.004-0.034    l0.004-0.035v-0.03l0.004-0.034v-0.031V25.82v-0.035v-0.03L64.506,25.722z"/></g><g><path d="M89.996,4.917V4.829l-0.004-0.087l-0.008-0.086L89.98,4.568l-0.01-0.083l-0.008-0.087l-0.012-0.087l-0.012-0.083    l-0.014-0.087L89.91,4.057l-0.02-0.083l-0.018-0.087l-0.02-0.083l-0.02-0.083l-0.025-0.083l-0.023-0.083l-0.027-0.083l-0.025-0.08    l-0.027-0.084l-0.029-0.078l-0.035-0.08l-0.031-0.083L89.576,2.99l-0.037-0.08l-0.033-0.079l-0.039-0.075L89.426,2.68L89.383,2.6    l-0.041-0.075l-0.041-0.072l-0.045-0.075l-0.047-0.072L89.16,2.233l-0.045-0.071l-0.049-0.073l-0.053-0.068l-0.055-0.067    l-0.053-0.068l-0.053-0.069l-0.057-0.063L88.74,1.684L88.684,1.62l-0.057-0.062l-0.061-0.063l-0.061-0.061l-0.064-0.061    l-0.061-0.057l-0.064-0.06l-0.068-0.053l-0.064-0.057L88.115,1.09l-0.068-0.049L87.98,0.988l-0.07-0.053l-0.07-0.049l-0.072-0.049    l-0.072-0.045l-0.07-0.045L87.549,0.7l-0.076-0.042L87.4,0.612l-0.078-0.038l-0.076-0.042l-0.078-0.038L87.09,0.458l-0.078-0.035    l-0.08-0.034l-0.08-0.03l-0.08-0.035l-0.078-0.03l-0.084-0.026l-0.078-0.027l-0.084-0.026l-0.084-0.027l-0.082-0.022l-0.084-0.02    l-0.084-0.019L86.025,0.11l-0.082-0.019l-0.088-0.015l-0.084-0.016l-0.086-0.011l-0.082-0.012l-0.088-0.007L85.434,0.02    l-0.088-0.008l-0.088-0.004L85.17,0.004h-0.086L84.996,0H64.998h-0.084l-0.086,0.004L64.74,0.008l-0.084,0.004L64.57,0.02    l-0.088,0.007L64.4,0.034l-0.088,0.012l-0.086,0.012l-0.084,0.015l-0.084,0.015l-0.086,0.015l-0.084,0.02L63.805,0.14l-0.082,0.02    l-0.084,0.022l-0.084,0.027l-0.082,0.026l-0.084,0.023l-0.08,0.03l-0.078,0.03l-0.084,0.031l-0.08,0.03l-0.078,0.034l-0.08,0.039    l-0.076,0.034l-0.076,0.038l-0.078,0.042l-0.076,0.039l-0.076,0.042l-0.076,0.045l-0.07,0.042l-0.072,0.045l-0.072,0.049    l-0.072,0.045l-0.07,0.049l-0.068,0.053l-0.072,0.048l-0.068,0.054l-0.064,0.056L61.75,1.185l-0.064,0.057l-0.064,0.057    l-0.064,0.061l-0.061,0.06L61.436,1.48l-0.061,0.06l-0.061,0.064l-0.057,0.061l-0.057,0.068l-0.057,0.064l-0.053,0.068    L61.037,1.93l-0.053,0.072L60.936,2.07l-0.049,0.072l-0.049,0.067l-0.049,0.072l-0.045,0.077l-0.047,0.072l-0.041,0.075    l-0.041,0.076l-0.043,0.075l-0.037,0.075l-0.039,0.075l-0.037,0.08l-0.033,0.079l-0.037,0.08l-0.031,0.075l-0.033,0.084    l-0.027,0.079l-0.031,0.084L60.24,3.448l-0.027,0.083l-0.023,0.083l-0.021,0.084l-0.023,0.083l-0.018,0.083l-0.02,0.084    l-0.02,0.083l-0.014,0.087l-0.016,0.083l-0.012,0.087l-0.012,0.084l-0.008,0.087l-0.01,0.083l-0.004,0.086l-0.008,0.087    l-0.004,0.088v0.083l-0.004,0.087v10.025l0.004,0.088v0.087l0.004,0.088l0.008,0.086l0.004,0.083l0.01,0.087l0.008,0.087    l0.012,0.084l0.012,0.087l0.016,0.083l0.014,0.086l0.02,0.084l0.02,0.084l0.018,0.083l0.023,0.087l0.021,0.083l0.023,0.083    l0.027,0.08l0.025,0.083l0.031,0.08l0.027,0.083l0.033,0.08l0.031,0.079l0.033,0.079l0.033,0.08l0.037,0.079l0.039,0.076    l0.041,0.075l0.043,0.079l0.041,0.072l0.041,0.075l0.047,0.072l0.045,0.076l0.045,0.071l0.049,0.073l0.049,0.067l0.053,0.072    l0.053,0.068l0.055,0.067l0.053,0.069l0.057,0.064l0.057,0.064l0.057,0.064l0.061,0.063l0.057,0.062l0.064,0.063l0.061,0.057    l0.064,0.061l0.061,0.057l0.068,0.056l0.064,0.057l0.068,0.053l0.068,0.053l0.068,0.053l0.068,0.049l0.07,0.05l0.072,0.049    l0.072,0.049l0.072,0.045l0.074,0.045l0.072,0.041l0.08,0.042l0.076,0.042l0.076,0.042l0.076,0.038l0.078,0.035l0.08,0.038    l0.078,0.034l0.08,0.031l0.08,0.034l0.082,0.03l0.08,0.027l0.084,0.026l0.08,0.027l0.082,0.022l0.084,0.023l0.082,0.023    l0.088,0.018l0.084,0.019l0.082,0.019l0.088,0.016l0.084,0.012l0.086,0.014l0.082,0.012l0.088,0.008l0.088,0.008l0.082,0.008    l0.088,0.002l0.088,0.008h0.086h0.084h19.998h0.088h0.086l0.088-0.008l0.088-0.002l0.088-0.008l0.082-0.008l0.088-0.008    l0.082-0.012l0.086-0.014l0.084-0.012l0.088-0.016l0.082-0.019l0.088-0.019l0.084-0.018l0.084-0.023l0.082-0.023l0.084-0.022    l0.084-0.027l0.078-0.026l0.084-0.027l0.078-0.03l0.08-0.034l0.08-0.031l0.08-0.034l0.078-0.038l0.078-0.035l0.078-0.038    l0.076-0.042l0.078-0.042l0.072-0.042l0.076-0.041l0.076-0.045l0.07-0.045l0.072-0.049l0.072-0.049l0.07-0.05l0.07-0.049    l0.066-0.053l0.068-0.053l0.068-0.053l0.064-0.057l0.068-0.056l0.064-0.057l0.061-0.061l0.064-0.057l0.061-0.063l0.061-0.062    l0.057-0.063l0.057-0.064l0.057-0.064l0.057-0.064l0.053-0.069l0.053-0.067l0.055-0.068l0.053-0.072l0.049-0.067l0.045-0.073    l0.049-0.071l0.047-0.076l0.045-0.072l0.041-0.075l0.041-0.072l0.043-0.079l0.041-0.075l0.039-0.076l0.033-0.079l0.037-0.08    l0.033-0.079l0.031-0.079l0.035-0.08l0.029-0.083l0.027-0.08l0.025-0.083l0.027-0.08l0.023-0.083l0.025-0.083l0.02-0.084    l0.02-0.086l0.018-0.084l0.02-0.084l0.016-0.086l0.014-0.083l0.012-0.087l0.012-0.084l0.008-0.087l0.01-0.087l0.004-0.083    l0.008-0.086l0.004-0.088v-0.087L90,14.999V5L89.996,4.917z M88.885,15.151l-0.033,0.391l-0.043,0.243l-0.072,0.288l-0.082,0.259    l-0.115,0.282l-0.068,0.143l-0.148,0.27l-0.148,0.229l-0.207,0.259l-0.186,0.206L87.57,17.92l-0.119,0.103l-0.188,0.14    l-0.232,0.156l-0.381,0.206l-0.359,0.148l-0.385,0.111l-0.256,0.052l-0.152,0.024l-0.338,0.026l0.01,0.003H64.998l-0.16-0.003    l-0.361-0.03l-0.238-0.039l-0.4-0.104l-0.254-0.09l-0.336-0.149l-0.244-0.134l-0.109-0.068l-0.227-0.159l-0.287-0.237    l-0.123-0.117l-0.285-0.313l-0.148-0.198l-0.074-0.105l-0.123-0.209l-0.141-0.259l-0.133-0.325l-0.092-0.28l-0.074-0.294    l-0.041-0.231l-0.025-0.251l-0.014-0.345V4.974l0.027-0.429l0.031-0.24l0.049-0.231l0.082-0.288l0.1-0.272l0.094-0.212    l0.057-0.112l0.15-0.264l0.188-0.273l0.148-0.186l0.088-0.101l0.221-0.223l0.242-0.202l0.121-0.094l0.268-0.18l0.131-0.076    l0.242-0.123l0.129-0.059l0.295-0.107l0.287-0.082l0.16-0.037l0.242-0.04l0.299-0.029l0.24-0.006l20.125,0.002l0.156,0.008    l0.273,0.031l0.238,0.043l0.162,0.036l0.156,0.042L86.4,1.373l0.248,0.104l0.383,0.208l0.215,0.139l0.27,0.213l0.109,0.092    l0.125,0.117l0.277,0.312l0.174,0.232l0.18,0.291l0.143,0.272l0.148,0.361l0.102,0.341l0.061,0.289l0.043,0.356l0.016,0.353    L88.885,15.151z"/><polygon points="82.494,9.872 82.49,9.837 82.488,9.806 82.484,9.772 82.48,9.742 82.477,9.708 82.473,9.678 82.465,9.644     82.457,9.613 82.453,9.579 82.441,9.549 82.436,9.515 82.428,9.485 82.416,9.455 82.408,9.424 82.396,9.394 82.385,9.36     82.375,9.33 82.363,9.3 82.352,9.27 82.336,9.239 82.326,9.213 82.311,9.182 82.295,9.151 82.279,9.122 82.264,9.095 82.25,9.064     82.234,9.038 82.215,9.007 82.199,8.981 82.182,8.954 82.162,8.928 82.143,8.901 82.123,8.875 82.105,8.849 82.084,8.822     82.064,8.8 82.041,8.773 82.018,8.751 82,8.724 81.977,8.702 81.953,8.678 81.932,8.656 81.904,8.633 81.881,8.61 81.859,8.588     81.832,8.569 81.807,8.546 81.783,8.527 81.758,8.509 81.73,8.485 81.705,8.467 81.678,8.448 81.65,8.433 81.621,8.414     81.594,8.395 81.568,8.379 81.539,8.365 81.508,8.35 81.48,8.334 81.451,8.32 81.424,8.303 81.395,8.289 81.363,8.277     81.334,8.267 81.303,8.251 81.271,8.24 81.242,8.228 81.209,8.221 81.178,8.209 81.148,8.202 81.117,8.19 81.084,8.183     81.053,8.176 81.02,8.167 80.988,8.16 80.959,8.156 80.926,8.149 80.895,8.145 80.859,8.141 80.826,8.137 80.795,8.133     80.762,8.13 80.732,8.13 80.697,8.127 80.664,8.127 80.633,8.127 80.6,8.127 80.568,8.127 80.535,8.13 80.5,8.13 80.469,8.133     80.438,8.137 80.406,8.137 80.371,8.145 80.342,8.149 80.307,8.153 80.277,8.16 80.242,8.164 80.213,8.171 80.178,8.179     80.148,8.187 80.119,8.198 80.084,8.205 80.055,8.212 80.023,8.225 79.992,8.236 79.963,8.248 79.934,8.258 79.902,8.271     79.873,8.285 79.842,8.296 79.813,8.312 79.781,8.327 79.756,8.342 79.725,8.356 79.693,8.373 79.668,8.387 79.641,8.406     79.611,8.421 79.586,8.44 79.559,8.459 79.531,8.478 79.506,8.497 79.479,8.516 79.451,8.535 79.43,8.558 79.402,8.576     79.375,8.6 79.354,8.622 79.33,8.645 79.309,8.668 79.285,8.69 79.264,8.712 79.24,8.735 79.217,8.762 79.195,8.785 79.176,8.811     79.152,8.837 79.135,8.864 79.115,8.887 79.096,8.913 79.076,8.94 79.059,8.97 79.041,8.997 79.025,9.024 79.01,9.053 78.99,9.08     78.977,9.106 78.961,9.137 78.945,9.167 78.93,9.197 78.918,9.224 78.902,9.254 78.893,9.284 78.881,9.315 78.865,9.345     78.857,9.375 78.846,9.409 78.836,9.439 78.828,9.47 78.816,9.5 78.809,9.534 78.801,9.565 78.793,9.595 78.787,9.628     78.783,9.658 78.773,9.693 78.77,9.723 78.764,9.757 78.76,9.792 78.76,9.821 78.756,9.856 78.752,9.886 78.752,9.921     78.748,9.951 78.748,9.984 78.748,10.019 78.748,10.049 78.752,10.083 78.752,10.118 78.756,10.147 78.76,10.181 78.76,10.211     78.764,10.246 78.77,10.276 78.773,10.311 78.783,10.34 78.787,10.374 78.793,10.404 78.801,10.438 78.809,10.469 78.816,10.5     78.828,10.533 78.836,10.563 78.846,10.594 78.857,10.624 78.865,10.654 78.881,10.688 78.893,10.719 78.902,10.749     78.918,10.775 78.93,10.805 78.945,10.836 78.961,10.867 78.977,10.893 78.99,10.923 79.01,10.95 79.025,10.976 79.041,11.007     79.059,11.033 79.076,11.06 79.096,11.086 79.115,11.112 79.135,11.139 79.152,11.166 79.176,11.192 79.195,11.214 79.217,11.241     79.24,11.263 79.264,11.291 79.285,11.313 79.309,11.335 79.33,11.358 79.354,11.381 79.375,11.399 79.402,11.422 79.43,11.446     79.451,11.464 79.479,11.487 79.506,11.505 79.531,11.525 79.559,11.544 79.586,11.563 79.611,11.578 79.641,11.597     79.668,11.611 79.693,11.631 79.725,11.646 79.756,11.662 79.781,11.676 79.813,11.691 79.842,11.702 79.873,11.719     79.902,11.729 79.934,11.745 79.963,11.756 79.992,11.768 80.023,11.778 80.055,11.786 80.084,11.798 80.119,11.805     80.148,11.816 80.178,11.824 80.213,11.832 80.242,11.835 80.277,11.843 80.307,11.851 80.342,11.854 80.371,11.858     80.406,11.862 80.438,11.866 80.469,11.87 80.5,11.873 80.535,11.873 80.568,11.873 80.6,11.876 80.633,11.876 80.664,11.876     80.697,11.873 80.732,11.873 80.762,11.87 80.795,11.87 80.826,11.866 80.859,11.862 80.895,11.858 80.926,11.851 80.959,11.847     80.988,11.839 81.02,11.835 81.053,11.828 81.084,11.816 81.117,11.809 81.148,11.801 81.178,11.794 81.209,11.782 81.242,11.771     81.271,11.76 81.303,11.749 81.334,11.737 81.363,11.725 81.395,11.711 81.424,11.699 81.451,11.684 81.48,11.669 81.508,11.653     81.539,11.639 81.568,11.623 81.594,11.604 81.621,11.589 81.65,11.571 81.678,11.551 81.705,11.532 81.73,11.513 81.758,11.495     81.783,11.476 81.807,11.456 81.832,11.434 81.859,11.411 81.881,11.393 81.904,11.369 81.932,11.347 81.953,11.324     81.977,11.301 82,11.279 82.018,11.252 82.041,11.229 82.064,11.203 82.084,11.176 82.105,11.154 82.123,11.127 82.143,11.101     82.162,11.074 82.182,11.048 82.199,11.021 82.215,10.991 82.234,10.965 82.25,10.935 82.264,10.908 82.279,10.877 82.295,10.851     82.311,10.822 82.326,10.791 82.336,10.76 82.352,10.73 82.363,10.7 82.375,10.669 82.385,10.639 82.396,10.608 82.408,10.579     82.416,10.549 82.428,10.518 82.436,10.484 82.441,10.454 82.453,10.419 82.457,10.39 82.465,10.359 82.473,10.325 82.477,10.295     82.48,10.261 82.484,10.23 82.488,10.197 82.49,10.163 82.494,10.132 82.494,10.098 82.498,10.068 82.498,10.034 82.498,10     82.498,9.97 82.498,9.935 82.494,9.9   "/><polygon points="76.871,9.856 76.867,9.825 76.863,9.792 76.859,9.761 76.855,9.727 76.852,9.697 76.844,9.662 76.84,9.632     76.832,9.599 76.824,9.569 76.818,9.534 76.811,9.503 76.803,9.473 76.791,9.439 76.783,9.409 76.771,9.379 76.762,9.349     76.75,9.318 76.738,9.288 76.727,9.258 76.713,9.227 76.701,9.197 76.686,9.167 76.67,9.137 76.654,9.109 76.639,9.08     76.625,9.053 76.609,9.024 76.59,8.997 76.572,8.97 76.557,8.94 76.539,8.913 76.52,8.887 76.5,8.86 76.48,8.834 76.459,8.811     76.439,8.785 76.416,8.762 76.395,8.735 76.371,8.712 76.352,8.69 76.33,8.664 76.303,8.641 76.281,8.618 76.258,8.596     76.23,8.576 76.209,8.554 76.182,8.535 76.16,8.513 76.133,8.493 76.105,8.475 76.08,8.456 76.053,8.437 76.025,8.418     75.996,8.399 75.969,8.383 75.939,8.365 75.914,8.35 75.883,8.334 75.857,8.32 75.826,8.303 75.795,8.289 75.77,8.277     75.74,8.267 75.709,8.251 75.678,8.24 75.648,8.228 75.615,8.216 75.584,8.205 75.553,8.198 75.523,8.187 75.49,8.179     75.459,8.167 75.428,8.16 75.395,8.156 75.365,8.149 75.33,8.141 75.301,8.137 75.266,8.13 75.234,8.127 75.201,8.122     75.17,8.118 75.137,8.118 75.107,8.114 75.072,8.114 75.039,8.114 75.008,8.11 74.975,8.11 74.939,8.114 74.91,8.114     74.875,8.114 74.846,8.118 74.813,8.122 74.777,8.127 74.748,8.13 74.713,8.133 74.684,8.137 74.648,8.145 74.619,8.153     74.59,8.16 74.555,8.167 74.523,8.176 74.49,8.183 74.459,8.19 74.43,8.202 74.398,8.212 74.369,8.221 74.334,8.232 74.305,8.248     74.273,8.258 74.244,8.271 74.219,8.285 74.188,8.296 74.156,8.312 74.131,8.327 74.1,8.342 74.07,8.356 74.045,8.375     74.014,8.391 73.986,8.41 73.961,8.425 73.934,8.444 73.908,8.463 73.881,8.482 73.854,8.505 73.828,8.523 73.805,8.542     73.777,8.565 73.752,8.584 73.729,8.606 73.707,8.629 73.684,8.652 73.658,8.675 73.635,8.702 73.615,8.724 73.594,8.747     73.57,8.773 73.551,8.796 73.527,8.822 73.51,8.849 73.49,8.875 73.471,8.901 73.453,8.928 73.434,8.954 73.416,8.981 73.4,9.007     73.381,9.038 73.365,9.064 73.352,9.095 73.336,9.125 73.32,9.151 73.305,9.182 73.293,9.213 73.279,9.243 73.268,9.273     73.252,9.303 73.242,9.333 73.23,9.364 73.223,9.394 73.211,9.424 73.199,9.455 73.191,9.489 73.184,9.519 73.178,9.549     73.17,9.583 73.162,9.613 73.154,9.648 73.15,9.678 73.146,9.711 73.139,9.742 73.135,9.776 73.131,9.806 73.131,9.841     73.129,9.875 73.129,9.904 73.125,9.939 73.125,9.97 73.125,10.003 73.125,10.038 73.129,10.068 73.129,10.102 73.131,10.136     73.131,10.167 73.135,10.2 73.139,10.23 73.146,10.265 73.15,10.295 73.154,10.329 73.162,10.359 73.17,10.394 73.178,10.423     73.184,10.454 73.191,10.488 73.199,10.518 73.211,10.549 73.223,10.583 73.23,10.612 73.242,10.643 73.252,10.674 73.268,10.703     73.279,10.734 73.293,10.764 73.305,10.794 73.32,10.822 73.336,10.851 73.352,10.877 73.365,10.908 73.381,10.938 73.4,10.965     73.416,10.991 73.434,11.021 73.453,11.048 73.471,11.074 73.49,11.101 73.51,11.127 73.527,11.15 73.551,11.176 73.57,11.203     73.594,11.226 73.615,11.252 73.635,11.275 73.658,11.298 73.684,11.32 73.707,11.343 73.729,11.366 73.752,11.389 73.777,11.411     73.805,11.43 73.828,11.452 73.854,11.472 73.881,11.491 73.908,11.509 73.934,11.528 73.961,11.548 73.986,11.566 74.014,11.582     74.045,11.6 74.07,11.616 74.1,11.631 74.131,11.646 74.156,11.662 74.188,11.676 74.219,11.691 74.244,11.702 74.273,11.719     74.305,11.729 74.334,11.741 74.369,11.751 74.398,11.764 74.43,11.774 74.459,11.782 74.49,11.794 74.523,11.801 74.555,11.809     74.59,11.816 74.619,11.824 74.648,11.832 74.684,11.835 74.713,11.839 74.748,11.847 74.777,11.851 74.813,11.854 74.846,11.858     74.875,11.858 74.91,11.862 74.939,11.862 74.975,11.862 75.008,11.862 75.039,11.862 75.072,11.862 75.107,11.858 75.137,11.858     75.17,11.854 75.201,11.851 75.234,11.847 75.266,11.843 75.301,11.839 75.33,11.832 75.365,11.828 75.395,11.82 75.428,11.813     75.459,11.805 75.49,11.798 75.523,11.786 75.553,11.778 75.584,11.768 75.615,11.756 75.648,11.749 75.678,11.737 75.709,11.725     75.74,11.711 75.77,11.699 75.795,11.684 75.826,11.669 75.857,11.657 75.883,11.639 75.914,11.623 75.939,11.607 75.969,11.593     75.996,11.574 76.025,11.559 76.053,11.54 76.08,11.522 76.105,11.501 76.133,11.483 76.16,11.461 76.182,11.442 76.209,11.418     76.23,11.399 76.258,11.377 76.281,11.355 76.303,11.332 76.33,11.309 76.352,11.287 76.371,11.263 76.395,11.241 76.416,11.214     76.439,11.188 76.459,11.166 76.48,11.139 76.5,11.112 76.52,11.086 76.539,11.06 76.557,11.033 76.572,11.007 76.59,10.979     76.609,10.95 76.625,10.923 76.639,10.893 76.654,10.867 76.67,10.836 76.686,10.805 76.701,10.779 76.713,10.749 76.727,10.719     76.738,10.688 76.75,10.658 76.762,10.628 76.771,10.598 76.783,10.567 76.791,10.533 76.803,10.502 76.811,10.473 76.818,10.438     76.824,10.408 76.832,10.378 76.84,10.344 76.844,10.313 76.852,10.279 76.855,10.25 76.859,10.215 76.863,10.181 76.867,10.151     76.871,10.118 76.871,10.086 76.873,10.052 76.873,10.019 76.873,9.988 76.873,9.954 76.873,9.925 76.871,9.89   "/><polygon points="71.244,9.872 71.244,9.837 71.24,9.806 71.236,9.772 71.23,9.742 71.227,9.708 71.221,9.678 71.217,9.644     71.209,9.613 71.201,9.579 71.193,9.549 71.186,9.515 71.178,9.485 71.168,9.455 71.16,9.424 71.148,9.394 71.137,9.36     71.125,9.33 71.113,9.3 71.102,9.27 71.088,9.239 71.076,9.213 71.061,9.182 71.045,9.151 71.029,9.122 71.016,9.095 71,9.064     70.98,9.038 70.967,9.007 70.947,8.981 70.932,8.954 70.914,8.928 70.895,8.901 70.875,8.875 70.854,8.849 70.834,8.822     70.811,8.8 70.791,8.773 70.77,8.751 70.746,8.724 70.729,8.702 70.705,8.678 70.678,8.656 70.656,8.633 70.633,8.61     70.607,8.588 70.584,8.569 70.557,8.546 70.531,8.527 70.508,8.509 70.482,8.485 70.455,8.467 70.424,8.448 70.398,8.433     70.373,8.414 70.346,8.395 70.316,8.379 70.289,8.365 70.258,8.35 70.232,8.334 70.201,8.32 70.172,8.303 70.141,8.289     70.115,8.277 70.084,8.267 70.055,8.251 70.02,8.24 69.99,8.228 69.959,8.221 69.93,8.209 69.898,8.202 69.865,8.19 69.836,8.183     69.805,8.176 69.771,8.167 69.74,8.16 69.705,8.156 69.676,8.149 69.643,8.145 69.611,8.141 69.576,8.137 69.547,8.133     69.514,8.13 69.479,8.13 69.449,8.127 69.414,8.127 69.385,8.127 69.35,8.127 69.316,8.127 69.285,8.13 69.252,8.13 69.223,8.133     69.188,8.137 69.152,8.137 69.123,8.145 69.088,8.149 69.059,8.153 69.025,8.16 68.994,8.164 68.961,8.171 68.93,8.179     68.9,8.187 68.865,8.198 68.836,8.205 68.805,8.212 68.773,8.225 68.742,8.236 68.711,8.248 68.68,8.258 68.65,8.271     68.619,8.285 68.59,8.296 68.563,8.312 68.531,8.327 68.502,8.342 68.475,8.356 68.445,8.373 68.42,8.387 68.389,8.406     68.363,8.421 68.336,8.44 68.309,8.459 68.283,8.478 68.256,8.497 68.23,8.516 68.203,8.535 68.178,8.558 68.154,8.576     68.129,8.6 68.105,8.622 68.078,8.645 68.057,8.668 68.033,8.69 68.01,8.712 67.992,8.735 67.969,8.762 67.947,8.785     67.926,8.811 67.904,8.837 67.887,8.864 67.867,8.887 67.848,8.913 67.828,8.94 67.811,8.97 67.791,8.997 67.775,9.024     67.756,9.053 67.742,9.08 67.727,9.106 67.711,9.137 67.695,9.167 67.68,9.197 67.666,9.224 67.654,9.254 67.643,9.284     67.627,9.315 67.617,9.345 67.605,9.375 67.594,9.409 67.586,9.439 67.576,9.47 67.568,9.5 67.561,9.534 67.553,9.565     67.545,9.595 67.537,9.628 67.529,9.658 67.525,9.693 67.518,9.723 67.514,9.757 67.512,9.792 67.508,9.821 67.508,9.856     67.504,9.886 67.504,9.921 67.5,9.951 67.5,9.984 67.5,10.019 67.5,10.049 67.504,10.083 67.504,10.118 67.508,10.147     67.508,10.181 67.512,10.211 67.514,10.246 67.518,10.276 67.525,10.311 67.529,10.34 67.537,10.374 67.545,10.404 67.553,10.438     67.561,10.469 67.568,10.5 67.576,10.533 67.586,10.563 67.594,10.594 67.605,10.624 67.617,10.654 67.627,10.688 67.643,10.719     67.654,10.749 67.666,10.775 67.68,10.805 67.695,10.836 67.711,10.867 67.727,10.893 67.742,10.923 67.756,10.95 67.775,10.976     67.791,11.007 67.811,11.033 67.828,11.06 67.848,11.086 67.867,11.112 67.887,11.139 67.904,11.166 67.926,11.192 67.947,11.214     67.969,11.241 67.992,11.263 68.01,11.291 68.033,11.313 68.057,11.335 68.078,11.358 68.105,11.381 68.129,11.399 68.154,11.422     68.178,11.446 68.203,11.464 68.23,11.487 68.256,11.505 68.283,11.525 68.309,11.544 68.336,11.563 68.363,11.578 68.389,11.597     68.42,11.611 68.445,11.631 68.475,11.646 68.502,11.662 68.531,11.676 68.563,11.691 68.59,11.702 68.619,11.719 68.65,11.729     68.68,11.745 68.711,11.756 68.742,11.768 68.773,11.778 68.805,11.786 68.836,11.798 68.865,11.805 68.9,11.816 68.93,11.824     68.961,11.832 68.994,11.835 69.025,11.843 69.059,11.851 69.088,11.854 69.123,11.858 69.152,11.862 69.188,11.866 69.223,11.87     69.252,11.873 69.285,11.873 69.316,11.873 69.35,11.876 69.385,11.876 69.414,11.876 69.449,11.873 69.479,11.873 69.514,11.87     69.547,11.87 69.576,11.866 69.611,11.862 69.643,11.858 69.676,11.851 69.705,11.847 69.74,11.839 69.771,11.835 69.805,11.828     69.836,11.816 69.865,11.809 69.898,11.801 69.93,11.794 69.959,11.782 69.99,11.771 70.02,11.76 70.055,11.749 70.084,11.737     70.115,11.725 70.141,11.711 70.172,11.699 70.201,11.684 70.232,11.669 70.258,11.653 70.289,11.639 70.316,11.623     70.346,11.604 70.373,11.589 70.398,11.571 70.424,11.551 70.455,11.532 70.482,11.513 70.508,11.495 70.531,11.476     70.557,11.456 70.584,11.434 70.607,11.411 70.633,11.393 70.656,11.369 70.678,11.347 70.705,11.324 70.729,11.301     70.746,11.279 70.77,11.252 70.791,11.229 70.811,11.203 70.834,11.176 70.854,11.154 70.875,11.127 70.895,11.101 70.914,11.074     70.932,11.048 70.947,11.021 70.967,10.991 70.98,10.965 71,10.935 71.016,10.908 71.029,10.877 71.045,10.851 71.061,10.822     71.076,10.791 71.088,10.76 71.102,10.73 71.113,10.7 71.125,10.669 71.137,10.639 71.148,10.608 71.16,10.579 71.168,10.549     71.178,10.518 71.186,10.484 71.193,10.454 71.201,10.419 71.209,10.39 71.217,10.359 71.221,10.325 71.227,10.295 71.23,10.261     71.236,10.23 71.24,10.197 71.244,10.163 71.244,10.132 71.246,10.098 71.25,10.068 71.25,10.034 71.25,10 71.25,9.97     71.25,9.935 71.246,9.9   "/></g><polygon points="28.931,53.344 29.329,52.689 29.738,52.042 30.158,51.402 30.589,50.77 31.028,50.146 31.479,49.528    31.944,48.916 32.413,48.314 32.895,47.719 35.99,56.383 38.14,56.383 38.208,56.471 38.276,56.558 38.345,56.645 38.413,56.729    38.484,56.812 38.557,56.891 38.632,56.97 38.708,57.05 38.784,57.13 38.863,57.205 38.943,57.28 39.025,57.353 39.108,57.425    39.192,57.496 39.275,57.563 39.363,57.632 39.45,57.696 39.537,57.764 39.627,57.825 39.718,57.886 39.809,57.946 39.899,58.006    39.995,58.064 40.089,58.117 40.184,58.17 40.282,58.224 40.381,58.271 40.475,58.321 40.578,58.366 40.676,58.412 40.774,58.458    40.876,58.499 40.979,58.537 41.081,58.574 41.187,58.612 41.289,58.646 41.396,58.677 41.5,58.71 41.603,58.737 41.709,58.764    41.816,58.79 41.925,58.813 42.031,58.836 42.141,58.854 42.247,58.87 42.356,58.889 42.462,58.9 42.572,58.916 42.682,58.924    42.792,58.931 42.901,58.938 43.011,58.941 43.121,58.945 43.227,58.945 43.337,58.945 43.446,58.941 43.557,58.934 43.667,58.928    43.776,58.92 43.886,58.907 43.992,58.896 44.101,58.881 44.207,58.866 44.317,58.848 44.423,58.825 44.533,58.805 44.639,58.778    44.745,58.756 44.85,58.726 44.956,58.696 45.063,58.665 45.166,58.631 45.271,58.598 45.373,58.559 45.475,58.521 45.577,58.479    45.676,58.438 45.778,58.396 45.876,58.352 45.975,58.303 46.073,58.253 46.171,58.204 46.266,58.151 46.361,58.098 46.455,58.041    46.55,57.984 46.641,57.923 46.732,57.862 46.822,57.803 46.913,57.738 47.001,57.674 47.088,57.605 47.171,57.537 47.257,57.47    47.337,57.397 47.42,57.326 47.5,57.25 47.58,57.175 47.66,57.099 47.735,57.019 47.81,56.939 47.886,56.859 47.958,56.776    48.03,56.693 48.288,56.383 51.633,56.383 51.682,56.383 51.732,56.387 51.781,56.387 51.826,56.391 51.875,56.395 51.924,56.398    51.975,56.402 52.02,56.409 52.068,56.418 52.113,56.426 52.162,56.433 52.209,56.443 52.258,56.455 52.303,56.467 52.354,56.478    52.396,56.489 52.443,56.505 52.488,56.52 52.535,56.534 52.584,56.55 52.625,56.565 52.67,56.584 52.715,56.603 52.762,56.622    52.803,56.641 52.848,56.663 52.891,56.682 52.936,56.705 52.977,56.729 53.018,56.754 53.061,56.776 53.102,56.804 53.145,56.829    53.182,56.856 53.223,56.883 53.26,56.909 53.303,56.939 53.34,56.97 53.379,57 53.416,57.026 53.449,57.06 53.486,57.091    53.521,57.126 53.561,57.155 53.594,57.189 53.627,57.228 53.658,57.262 53.693,57.295 53.727,57.333 53.758,57.368 53.787,57.405    53.816,57.443 53.848,57.48 53.873,57.523 53.904,57.56 53.932,57.599 53.957,57.64 53.984,57.682 54.01,57.723 54.033,57.764    54.059,57.806 54.082,57.848 54.104,57.89 54.123,57.931 54.146,57.978 54.166,58.022 54.184,58.064 54.203,58.108 54.223,58.154    54.24,58.2 54.256,58.245 54.271,58.291 54.285,58.336 54.301,58.382 54.313,58.431 54.324,58.476 54.336,58.521 54.346,58.57    54.359,58.616 54.365,58.665 54.373,58.71 54.381,58.76 54.389,58.809 54.393,58.854 54.4,58.904 54.404,58.953 54.404,58.999    54.408,59.048 54.408,59.097 54.41,59.146 54.41,59.195 54.408,59.241 54.408,59.29 54.404,59.339 54.4,59.385 54.396,59.434    54.393,59.482 54.385,59.528 54.377,59.578 54.369,59.628 54.361,59.673 54.355,59.722 54.342,59.768 54.332,59.816 54.32,59.862    54.307,59.907 54.293,59.956 54.279,60.002 54.264,60.047 54.248,60.093 54.234,60.138 54.215,60.183 54.195,60.226 54.176,60.27    54.158,60.315 54.135,60.36 54.115,60.403 54.094,60.444 54.07,60.49 54.047,60.531 54.021,60.573 53.998,60.615 53.973,60.652    53.945,60.694 53.92,60.735 53.889,60.773 53.861,60.812 53.832,60.854 53.801,60.891 53.771,60.926 53.742,60.962 53.711,61.001    53.678,61.035 53.643,61.072 53.613,61.107 53.574,61.141 53.541,61.175 53.508,61.204 53.469,61.239 53.436,61.27 53.396,61.3    53.359,61.33 53.32,61.359 53.283,61.391 53.244,61.418 53.203,61.447 53.166,61.475 53.125,61.501 53.082,61.526 53.037,61.451    52.992,61.379 52.943,61.307 52.895,61.239 52.846,61.171 52.791,61.1 52.738,61.031 52.686,60.966 52.629,60.898 52.572,60.834    52.516,60.77 52.457,60.71 52.396,60.646 52.338,60.584 52.277,60.527 52.213,60.467 52.152,60.41 52.084,60.354 52.02,60.297    51.955,60.244 51.887,60.19 51.818,60.138 51.746,60.089 51.678,60.039 51.605,59.99 51.535,59.945 51.463,59.896 51.391,59.854    51.314,59.809 51.24,59.768 51.164,59.726 51.088,59.688 51.012,59.649 50.933,59.611 50.853,59.578 50.778,59.544 50.698,59.509    50.619,59.479 50.536,59.449 50.457,59.422 50.373,59.396 50.293,59.369 50.21,59.347 50.126,59.323 50.042,59.302 49.96,59.282    49.877,59.263 49.789,59.244 49.707,59.229 49.624,59.219 49.537,59.203 49.454,59.195 49.366,59.184 49.283,59.176 49.195,59.168    49.112,59.165 49.025,59.161 48.938,59.158 48.852,59.158 48.768,59.158 48.681,59.161 48.593,59.165 48.511,59.168 48.423,59.176    48.341,59.184 48.253,59.195 48.17,59.207 48.083,59.219 47.999,59.233 47.916,59.248 47.83,59.267 47.746,59.286 47.664,59.306    47.58,59.323 47.496,59.351 47.417,59.373 39.033,61.932 35.521,61.932 35.434,61.932 35.347,61.928 35.264,61.924 35.176,61.92    35.089,61.913 35.002,61.905 34.919,61.897 34.832,61.887 34.749,61.871 34.662,61.859 34.575,61.845 34.492,61.825 34.409,61.808    34.322,61.788 34.238,61.765 34.154,61.742 34.071,61.717 33.992,61.693 33.908,61.667 33.825,61.637 33.746,61.606 33.667,61.576    33.583,61.542 33.508,61.508 33.428,61.475 33.349,61.436 33.273,61.398 33.193,61.355 33.117,61.318 33.042,61.273 32.967,61.231    32.895,61.187 32.822,61.141 32.75,61.092 32.675,61.046 32.606,60.993 32.535,60.944 32.466,60.891 32.398,60.838 32.334,60.785    32.266,60.728 32.202,60.672 32.137,60.611 32.073,60.554 32.012,60.493 31.952,60.433 31.891,60.368 31.831,60.309 31.774,60.244    31.718,60.176 31.66,60.111 31.607,60.043 31.554,59.975 31.501,59.907 31.453,59.835 31.403,59.768 31.354,59.695 31.304,59.619    31.259,59.548 31.217,59.476 31.173,59.399 31.13,59.323 31.089,59.248 31.051,59.168 31.014,59.093 30.976,59.014 30.941,58.934    30.907,58.854 30.874,58.775 30.843,58.696 30.812,58.612  "/><polygon points="45.162,19.999 45.301,20.002 45.445,20.006 45.585,20.011 45.725,20.022 45.866,20.033 46.005,20.044    46.146,20.061 46.285,20.079 46.425,20.102 46.565,20.124 46.701,20.151 46.841,20.177 46.978,20.208 47.114,20.242 47.25,20.275    47.387,20.313 47.523,20.352 47.656,20.393 47.791,20.438 47.924,20.488 48.057,20.537 48.186,20.586 48.313,20.643 48.446,20.695    48.571,20.756 48.7,20.816 48.825,20.877 48.954,20.941 49.075,21.01 49.199,21.078 49.32,21.15 49.438,21.226 49.56,21.298    49.676,21.377 49.793,21.456 49.907,21.536 50.021,21.623 50.134,21.707 50.244,21.792 50.354,21.884 50.46,21.975 50.566,22.069    50.667,22.164 50.77,22.258 50.873,22.357 50.971,22.459 51.068,22.563 51.164,22.664 51.26,22.77 51.35,22.875 51.441,22.986    51.527,23.095 51.613,23.205 51.697,23.318 51.781,23.432 51.861,23.55 51.936,23.667 52.012,23.784 52.088,23.905 52.16,24.026    52.227,24.147 52.295,24.272 52.359,24.397 52.424,24.522 52.484,24.651 52.545,24.78 52.602,24.908 52.656,25.036 52.709,25.169    52.758,25.298 52.803,25.431 52.848,25.566 52.895,25.699 52.932,25.836 52.973,25.972 53.006,26.108 53.041,26.245 53.072,26.381    53.102,26.521 53.129,26.657 53.152,26.796 53.17,26.933 53.188,27.073 53.207,27.213 53.219,27.357 53.234,27.497 53.242,27.636    53.248,27.777 53.252,27.917 53.258,28.057 53.252,28.197 53.248,28.34 53.244,28.481 53.238,28.621 53.227,28.761 53.215,28.901    53.199,29.041 53.182,29.182 53.162,29.321 53.141,29.461 53.113,29.597 53.086,29.738 53.057,29.874 53.021,30.01 52.988,30.146    52.955,30.282 52.912,30.419 52.871,30.552 52.83,30.687 52.779,30.82 52.73,30.953 52.682,31.084 52.629,31.214 52.572,31.343    52.516,31.471 52.455,31.6 52.393,31.725 52.33,31.854 52.262,31.975 52.193,32.099 52.121,32.221 52.051,32.342 51.975,32.459    51.898,32.577 51.818,32.694 51.738,32.811 51.656,32.925 51.568,33.035 51.482,33.148 51.395,33.253 51.303,33.364 51.209,33.47    51.115,33.576 51.02,33.678 50.921,33.776 50.823,33.878 50.721,33.973 50.619,34.071 50.512,34.166 50.407,34.257 50.297,34.348    50.188,34.434 50.078,34.522 49.963,34.605 49.85,34.688 49.737,34.771 49.62,34.847 49.499,34.927 49.381,34.999 49.261,35.071    49.139,35.142 49.014,35.21 48.889,35.275 48.764,35.34 48.64,35.403 48.511,35.46 48.382,35.517 48.249,35.574 48.121,35.627    47.989,35.676 47.856,35.726 47.723,35.771 47.591,35.813 47.455,35.854 47.318,35.892 47.182,35.929 47.046,35.964 46.91,35.994    46.77,36.024 46.633,36.051 46.493,36.077 46.354,36.097 46.217,36.115 46.077,36.134 45.937,36.15 45.792,36.161 45.652,36.172    45.513,36.179 45.373,36.184 45.233,36.188 45.092,36.188 44.949,36.184 44.809,36.179 44.669,36.172 44.529,36.161 44.389,36.15    44.248,36.134 44.108,36.115 43.969,36.097 43.829,36.077 43.693,36.051 43.553,36.024 43.417,35.994 43.28,35.964 43.14,35.929    43.003,35.892 42.871,35.854 42.735,35.813 42.602,35.771 42.47,35.726 42.334,35.676 42.205,35.627 42.072,35.574 41.944,35.517    41.816,35.46 41.687,35.403 41.561,35.34 41.433,35.275 41.312,35.21 41.187,35.142 41.066,35.071 40.945,34.999 40.823,34.927    40.706,34.847 40.589,34.771 40.475,34.688 40.362,34.605 40.249,34.522 40.135,34.434 40.025,34.348 39.918,34.257 39.813,34.166    39.707,34.071 39.604,33.973 39.503,33.878 39.405,33.776 39.306,33.678 39.207,33.576 39.112,33.47 39.021,33.364 38.931,33.253    38.84,33.148 38.753,33.035 38.67,32.925 38.587,32.811 38.508,32.694 38.428,32.577 38.348,32.459 38.276,32.342 38.2,32.221    38.128,32.099 38.06,31.975 37.997,31.854 37.932,31.725 37.868,31.6 37.808,31.471 37.75,31.343 37.697,31.214 37.645,31.084    37.591,30.953 37.542,30.82 37.497,30.687 37.451,30.552 37.409,30.419 37.372,30.282 37.334,30.146 37.299,30.01 37.269,29.874    37.239,29.738 37.212,29.597 37.187,29.461 37.164,29.321 37.145,29.182 37.125,29.041 37.11,28.901 37.096,28.761 37.088,28.621    37.08,28.481 37.072,28.34 37.07,28.197 37.07,28.057 37.072,27.917 37.076,27.777 37.084,27.636 37.092,27.493 37.103,27.353    37.118,27.213 37.133,27.073 37.152,26.933 37.175,26.796 37.198,26.657 37.224,26.521 37.255,26.381 37.285,26.245 37.318,26.108    37.352,25.972 37.391,25.836 37.432,25.699 37.474,25.566 37.52,25.431 37.569,25.298 37.618,25.169 37.671,25.036 37.724,24.908    37.78,24.78 37.837,24.651 37.901,24.522 37.963,24.397 38.03,24.272 38.095,24.147 38.166,24.026 38.239,23.905 38.31,23.784    38.386,23.667 38.466,23.55 38.545,23.432 38.628,23.318 38.711,23.205 38.798,23.095 38.886,22.986 38.977,22.875 39.067,22.77    39.162,22.664 39.256,22.563 39.355,22.459 39.454,22.357 39.552,22.258 39.654,22.164 39.761,22.069 39.866,21.975 39.972,21.884    40.082,21.792 40.191,21.707 40.306,21.623 40.418,21.536 40.532,21.456 40.65,21.377 40.767,21.298 40.884,21.226 41.006,21.15    41.126,21.078 41.248,21.01 41.372,20.941 41.497,20.877 41.622,20.816 41.75,20.756 41.879,20.695 42.008,20.639 42.137,20.586    42.269,20.537 42.401,20.488 42.534,20.438 42.667,20.393 42.804,20.352 42.939,20.313 43.072,20.275 43.211,20.242 43.348,20.208    43.484,20.177 43.621,20.151 43.761,20.124 43.9,20.102 44.041,20.079 44.181,20.061 44.321,20.044 44.458,20.033 44.6,20.022    44.741,20.011 44.881,20.006 45.021,20.002  "/></g><text x="0" y="115" fill="#000000" font-size="5px" font-weight="bold" font-family="'Helvetica Neue', Helvetica, Arial-Unicode, Arial, Sans-serif">Created by Michael V. Suriano</text><text x="0" y="120" fill="#000000" font-size="5px" font-weight="bold" font-family="'Helvetica Neue', Helvetica, Arial-Unicode, Arial, Sans-serif">from the Noun Project</text></svg>