<svg xmlns="http://www.w3.org/2000/svg" xmlns:xlink="http://www.w3.org/1999/xlink" version="1.1" x="0px" y="0px" viewBox="0 0 100 125" enable-background="new 0 0 100 100" xml:space="preserve"><g><path d="M50,7.231C26.417,7.231,7.232,26.417,7.232,50S26.417,92.769,50,92.769c23.583,0,42.769-19.186,42.769-42.769   S73.583,7.231,50,7.231z M50,89.769c-21.928,0-39.768-17.84-39.768-39.769S28.072,10.231,50,10.231   c21.929,0,39.769,17.84,39.769,39.769S71.929,89.769,50,89.769z"/><path d="M50,13.563c-20.091,0-36.436,16.346-36.436,36.437S29.909,86.437,50,86.437S86.437,70.091,86.437,50   S70.091,13.563,50,13.563z M50,85.563C30.39,85.563,14.437,69.61,14.437,50S30.39,14.437,50,14.437   c19.61,0,35.563,15.953,35.563,35.563S69.61,85.563,50,85.563z"/><path d="M31.49,55.69l-2.054,5.265c-0.301,0.771,0.081,1.642,0.852,1.942C30.467,62.968,30.652,63,30.833,63   c0.6,0,1.167-0.362,1.398-0.955l2.283-5.851c0.826-0.071,1.574-0.346,2.268-0.745l1.319,3.423c0.229,0.596,0.798,0.961,1.4,0.961   c0.179,0,0.361-0.032,0.539-0.101c0.773-0.298,1.159-1.166,0.861-1.938l-1.625-4.22c0.894-0.75,1.817-1.5,2.908-2.043l1.866,7.179   c0.175,0.676,0.784,1.123,1.451,1.123c0.125,0,0.252-0.016,0.378-0.048c0.802-0.209,1.283-1.027,1.074-1.83l-1.893-7.281   c0.635-0.146,1.183-0.336,1.647-0.563l4.938,2.555c0.221,0.114,0.456,0.168,0.688,0.168c0.543,0,1.066-0.295,1.333-0.811   c0.381-0.736,0.093-1.641-0.643-2.021l-4.034-2.087c0.076-0.157,0.141-0.312,0.193-0.462c0.331-0.945,0.324-1.944,0.114-2.905   l4.176-0.388c0.825-0.076,1.432-0.807,1.354-1.632c-0.076-0.825-0.824-1.44-1.632-1.354l-5.211,0.483   c-0.174-0.238-0.355-0.464-0.544-0.67c-0.338-0.37-0.682-1.041-1.02-1.763l4.188-1.852c0.758-0.335,1.101-1.221,0.766-1.979   c-0.336-0.758-1.223-1.101-1.979-0.766l-4.288,1.896c-0.444-0.787-0.972-1.542-1.63-2.14l1.298-4.466   c0.231-0.796-0.226-1.628-1.022-1.859c-0.795-0.234-1.628,0.227-1.859,1.021l-1.19,4.095c-0.265-0.018-0.538-0.022-0.83,0.004   c-0.951,0.081-1.928,0.252-2.886,0.501L35.8,28.184c-0.175-0.81-0.975-1.325-1.783-1.149c-0.81,0.175-1.325,0.973-1.15,1.782   l1.274,5.901c-0.948,0.462-1.81,1.025-2.533,1.686l-5.261-3.779c-0.673-0.481-1.61-0.329-2.093,0.344s-0.33,1.61,0.343,2.094   l5.268,3.784c-0.159,0.396-0.284,0.81-0.349,1.247c-0.163,1.094-0.938,1.955-1.859,2.806l-4.918-2.412   c-0.745-0.367-1.643-0.058-2.007,0.687c-0.365,0.743-0.058,1.642,0.686,2.007l3.953,1.938c-0.484,0.6-0.871,1.277-1.004,2.04   l-6.321,1.237c-0.813,0.159-1.343,0.947-1.184,1.76c0.14,0.716,0.768,1.212,1.471,1.212c0.095,0,0.192-0.009,0.29-0.028l6.51-1.274   c0.484,0.725,0.938,1.354,1.385,1.931l-3.484,4.023c-0.542,0.626-0.474,1.573,0.152,2.115c0.284,0.246,0.633,0.366,0.981,0.366   c0.42,0,0.838-0.176,1.134-0.519l3.292-3.802C29.425,54.842,30.361,55.324,31.49,55.69z M32.483,40.536   c0.352-2.356,4.163-4.071,7.644-4.368c0.064-0.005,0.126-0.008,0.187-0.008c1.308,0,2.073,1.461,3.09,3.689   c0.55,1.203,1.068,2.34,1.824,3.164c0.828,0.903,1.475,2.44,1.122,3.446c-0.25,0.712-1.062,1.18-2.415,1.391   c-3.087,0.482-5.127,2.196-6.767,3.574c-1.198,1.006-2.144,1.801-3.051,1.801c-0.109,0-0.221-0.011-0.336-0.033   c-2.969-0.565-3.99-1.544-6.199-4.858c-0.457-0.686-0.492-0.911,1.416-2.604C30.39,44.495,32.122,42.958,32.483,40.536z"/><ellipse cx="37.583" cy="40.151" rx="1.917" ry="1.682"/><ellipse cx="32.167" cy="48.067" rx="1.333" ry="1.067"/><ellipse cx="38.192" cy="45.847" rx="1.308" ry="1.153"/><path d="M66.75,61.5c-4.073-4.306-9.479,3.893-12,8.375c-1.177,2.092-3.625,7.75,1.5,8.75s4.622-5.25,6.375-8.125   C64.869,66.82,71.125,66.125,66.75,61.5z"/><path d="M58.672,32.749c2.794,3.282,1.499,9.441,7.26,6.731c5.363-2.523-0.734-10.221-4.204-14.017   c-1.619-1.771-6.229-5.866-8.781-1.311C50.395,28.709,56.489,30.186,58.672,32.749z"/><path d="M79.468,51.252l-0.082-0.236c-0.08-0.301,0.151-1.4,0.32-2.203c0.485-2.304,1.089-5.171-0.4-7.007   c-0.804-0.991-2.084-1.493-3.806-1.493c-2.341,0-3.582,1.194-4.211,2.197c-1.292,2.059-1.218,5.395,0.186,8.3   c0.562,1.162,0.197,2.923-0.153,4.626c-0.434,2.1-0.882,4.271,0.289,5.844c0.742,0.996,1.985,1.558,3.803,1.717   c0.257,0.022,0.503,0.033,0.736,0.033c1.718,0,3.001-0.579,3.813-1.722C81.768,58.771,80.545,54.354,79.468,51.252z M78.333,60.148   c-0.422,0.593-1.136,0.881-2.184,0.881c-0.178,0-0.365-0.008-0.562-0.025c-1.198-0.105-1.996-0.414-2.372-0.919   c-0.635-0.854-0.295-2.501,0.064-4.245c0.419-2.029,0.853-4.127-0.004-5.899c-1.098-2.274-1.218-4.893-0.292-6.368   c0.524-0.836,1.371-1.26,2.517-1.26c1.089,0,1.848,0.254,2.253,0.753c0.889,1.097,0.373,3.546-0.004,5.335   c-0.303,1.439-0.522,2.48-0.258,3.255l0.087,0.253C79.019,56.057,79.272,58.829,78.333,60.148z"/><ellipse cx="75.688" cy="57" rx="1.438" ry="1.679"/><ellipse cx="75.469" cy="45.688" rx="1.219" ry="1.312"/><path d="M44.03,66.894l-6,6.5c-0.749,0.812-0.698,2.077,0.113,2.826c0.384,0.354,0.871,0.53,1.356,0.53   c0.539,0,1.076-0.217,1.47-0.644l6-6.5c0.749-0.812,0.698-2.077-0.113-2.826C46.046,66.032,44.78,66.082,44.03,66.894z"/><path d="M46.016,29.021c0.241,0.893,1.048,1.48,1.93,1.48c0.172,0,0.347-0.022,0.521-0.07c1.066-0.287,1.698-1.385,1.411-2.451   l-2.447-9.075c-0.288-1.067-1.386-1.702-2.452-1.41c-1.066,0.287-1.698,1.385-1.411,2.451L46.016,29.021z"/><path d="M70.305,40.165c0.329,0.206,0.695,0.304,1.057,0.304c0.667,0,1.319-0.333,1.698-0.941l2.887-4.626   c0.585-0.937,0.3-2.171-0.638-2.755c-0.937-0.587-2.17-0.3-2.755,0.638l-2.887,4.626C69.082,38.347,69.367,39.581,70.305,40.165z"/><path d="M64.336,53.671c0.347,0,0.699-0.09,1.02-0.28c0.949-0.563,1.262-1.791,0.698-2.741l-4.143-6.978   c-0.563-0.948-1.789-1.265-2.741-0.698c-0.949,0.563-1.262,1.791-0.698,2.741l4.143,6.978   C62.988,53.321,63.653,53.671,64.336,53.671z"/><path d="M59.428,52.317l-6.858,2.834c-1.021,0.422-1.507,1.592-1.085,2.612c0.318,0.771,1.063,1.237,1.85,1.237   c0.254,0,0.513-0.05,0.763-0.152l6.858-2.834c1.021-0.422,1.507-1.592,1.085-2.612C61.619,52.382,60.452,51.896,59.428,52.317z"/><path d="M51.472,61.695c-0.184-1.089-1.215-1.823-2.306-1.638c-1.089,0.185-1.822,1.217-1.637,2.306l1.14,6.721   c0.166,0.977,1.012,1.666,1.969,1.666c0.111,0,0.224-0.009,0.337-0.028c1.089-0.185,1.822-1.217,1.637-2.306L51.472,61.695z"/><path d="M36.867,66.282c-0.397-1.031-1.554-1.547-2.585-1.148l-6.524,2.51c-1.031,0.396-1.545,1.554-1.148,2.584   c0.306,0.795,1.063,1.283,1.867,1.283c0.239,0,0.481-0.044,0.718-0.135l6.524-2.51C36.749,68.47,37.263,67.312,36.867,66.282z"/><path d="M35.335,73.955c-0.438-1.015-1.619-1.479-2.63-1.04c-1.014,0.439-1.479,1.616-1.04,2.63l2.167,5   c0.327,0.755,1.063,1.206,1.836,1.206c0.266,0,0.535-0.054,0.794-0.166c1.014-0.439,1.479-1.616,1.04-2.63L35.335,73.955z"/><path d="M71.587,67.925l-6.807,5.24c-0.876,0.674-1.039,1.93-0.365,2.805c0.395,0.512,0.987,0.78,1.586,0.78   c0.427,0,0.855-0.136,1.219-0.415l6.807-5.24c0.876-0.674,1.039-1.93,0.365-2.805C73.715,67.414,72.459,67.253,71.587,67.925z"/></g><text x="0" y="115" fill="#000000" font-size="5px" font-weight="bold" font-family="'Helvetica Neue', Helvetica, Arial-Unicode, Arial, Sans-serif">Created by Dima Lagunov</text><text x="0" y="120" fill="#000000" font-size="5px" font-weight="bold" font-family="'Helvetica Neue', Helvetica, Arial-Unicode, Arial, Sans-serif">from the Noun Project</text></svg>