<svg xmlns="http://www.w3.org/2000/svg" xmlns:xlink="http://www.w3.org/1999/xlink" version="1.1" x="0px" y="0px" viewBox="0 0 100 125" enable-background="new 0 0 100 100" xml:space="preserve"><g><path d="M48.759,51.26l-8.326-1.704c-0.2-2.471-0.382-5.133-0.35-5.687c0.039-0.635,0.416-2.094,1.156-2.75   c0.041-0.037,0.077-0.077,0.111-0.12c0.309-0.29,0.65-0.547,1.025-0.823c0.674-0.498,1.371-1.013,1.932-1.86   c0.981-1.521,1.254-3.851-0.467-5.37c-0.149-0.135-0.322-0.268-0.502-0.385c-0.188-0.122-0.379-0.225-0.558-0.304   c-0.496-0.228-1.015-0.343-1.541-0.343c-1.358,0-2.722,0.803-3.56,2.095c-0.559,0.867-0.75,1.753-0.92,2.534l-0.021,0.092   c-0.089,0.405-0.183,0.795-0.315,1.178c-0.34,0.894-0.699,1.125-1.744,1.125l-0.191,0.011c-0.244-0.004-0.6,0.005-1.176,0.018   l-7.283,0.161c-0.523,0-1.033,0.152-1.472,0.437c-0.077,0.042-0.147,0.093-0.208,0.152l-6.425,6.291   c-1.74,1.269-1.45,2.456-0.899,3.228c0.434,0.609,0.992,0.931,1.611,0.931l0.082-0.001c0.615-0.028,1.168-0.368,1.582-0.664   c0.031-0.022,0.061-0.046,0.088-0.071l6.467-6.003l3.811,0.225l-4.492,6.627c-1.275,1.614-1.842,3.142-2.088,5.638   c-0.15,1.514-2.258,4.495-3.422,5.953l-0.823,0.05c-2.38,0.143-7.489,0.45-8.237,0.499c-0.903,0.059-1.785,0.512-2.299,1.184   c-0.436,0.567-0.591,1.241-0.448,1.949c0.394,1.931,1.987,1.978,3.268,2.017c1.349,0.036,10.472-0.105,10.546-0.106   c0.073,0,0.15-0.01,0.212-0.026c0.812-0.168,1.532-0.648,1.966-1.302l4.434-5.864l5.264,2.985l4.072,6.633   c0.283,0.462,0.479,0.778,0.625,1.003l0.145,0.246c0.763,1.301,1.577,2.072,2.422,2.292c0.169,0.043,0.342,0.066,0.511,0.066   c0.362,0,0.713-0.098,1.04-0.291c1.361-0.803,1.562-2.404,0.529-4.162l-4.827-9.329c-0.023-0.049-0.056-0.101-0.077-0.128   c-0.246-0.393-0.555-0.716-0.92-0.958l-4.66-3.125l2.564-4.164l0.166,0.765c0.117,0.819,0.531,1.466,1.199,1.873   c0.299,0.182,0.557,0.339,9.951,1.3l1.105,0.115c0.152,0.017,0.311,0.026,0.466,0.026c1.386,0,2.394-0.662,2.565-1.687   C51.614,52.582,50.595,51.636,48.759,51.26z M31.692,56.509l5.378,3.607c0.158,0.105,0.294,0.251,0.414,0.444l4.837,9.346   c0.299,0.508,0.711,1.411,0.129,1.755c-0.109,0.065-0.137,0.048-0.19,0.034c-0.268-0.069-0.757-0.491-1.349-1.497   c-0.133-0.212-3.301-5.376-4.959-8.077c-0.078-0.128-0.189-0.236-0.322-0.311l-6.146-3.485c-0.378-0.214-0.896-0.107-1.157,0.239   l-4.937,6.532c-0.197,0.298-0.502,0.504-0.794,0.575c-0.07,0.001-7.061,0.112-9.649,0.112c-0.348,0-0.613-0.001-0.769-0.007   c-1.456-0.043-1.472-0.125-1.565-0.581c-0.039-0.195-0.004-0.351,0.114-0.504c0.2-0.261,0.608-0.461,0.994-0.486   c0.979-0.063,9.442-0.571,9.442-0.571c0.246-0.014,0.477-0.131,0.636-0.321c0.39-0.47,3.816-4.663,4.069-7.219   c0.213-2.149,0.664-3.384,1.721-4.718l5.445-8.023c0.18-0.266,0.203-0.61,0.061-0.898s-0.43-0.479-0.75-0.498l-5.812-0.342   c-0.229,0-0.448,0.084-0.615,0.239l-6.687,6.211c-0.41,0.288-0.564,0.309-0.576,0.312c0,0-0.06-0.026-0.171-0.183   c-0.102-0.143-0.183-0.255,0.524-0.762c0.037-0.026,0.072-0.057,0.104-0.088l6.4-6.262c0.156-0.109,0.336-0.165,0.574-0.165   c0,0,0.001,0,0.002,0c2.278-0.051,8.332-0.187,8.592-0.189c1.244,0,2.111-0.34,2.732-1.079l0.074,0.044l0.15-0.268   c0.07-0.125,0.123-0.247,0.182-0.37c0.035-0.066,0.068-0.139,0.102-0.209c0.018-0.04,0.037-0.079,0.053-0.119   c0.043-0.096,0.09-0.185,0.129-0.288c0.023-0.064,0.038-0.129,0.047-0.195c0.152-0.461,0.258-0.911,0.355-1.343   c0.148-0.695,0.286-1.351,0.661-1.928c0.403-0.614,1.157-1.27,2.063-1.27c0.385,0,0.764,0.12,1.127,0.356   c0.572,0.372,0.9,0.907,0.949,1.548c0.041,0.564-0.137,1.198-0.489,1.739c-0.37,0.569-0.899,0.958-1.491,1.395   c-0.383,0.278-0.826,0.609-1.258,1.027c-0.006,0.004-0.014,0.006-0.018,0.01c-0.021,0.019-0.037,0.042-0.058,0.06   c-0.068,0.068-0.135,0.141-0.202,0.214c-0.088,0.096-0.176,0.191-0.256,0.296c-0.034,0.042-0.07,0.077-0.104,0.121l-0.204,0.266   l0.029,0.018c-0.686,1.125-0.926,2.465-0.959,3.006c-0.059,0.982,0.328,5.68,0.407,6.612c0.032,0.394,0.325,0.723,0.712,0.802   l8.984,1.839c0.684,0.14,1.043,0.345,1.191,0.464c-0.135,0.08-0.51,0.186-1.003,0.131c-0.185-0.02-0.581-0.061-1.12-0.116   c-5.528-0.565-8.643-0.931-9.263-1.09c-0.169-0.125-0.264-0.307-0.298-0.56l-0.658-3.058c-0.078-0.36-0.362-0.632-0.723-0.693   c-0.359-0.062-0.727,0.106-0.916,0.413l-4.182,6.791C31.175,55.708,31.291,56.24,31.692,56.509z"/><path d="M90.228,49.487c-0.097-0.468-0.393-0.875-0.832-1.144c-0.641-0.396-1.579-0.475-2.533-0.217   c-0.941,0.253-5.156,1.347-6.947,1.812c-0.879-2.672-1.379-4.597-1.359-4.938c0.012-0.192,0.182-0.686,1.391-1.435l0.01,0.011   l0.219-0.144c0.086-0.057,0.176-0.104,0.265-0.154c0.025-0.014,0.048-0.027,0.075-0.042c0.006-0.003,0.01-0.008,0.016-0.011   c0.441-0.234,0.908-0.395,1.426-0.569c0.793-0.269,1.613-0.547,2.403-1.182c1.397-1.15,2.366-3.287,1.192-5.257   c-0.103-0.174-0.227-0.354-0.361-0.52c-0.141-0.173-0.291-0.329-0.439-0.459c-0.695-0.635-1.559-0.971-2.495-0.971   c-0.999,0-2.055,0.396-2.897,1.085c-0.795,0.656-1.248,1.442-1.646,2.134l-0.05,0.083c-0.179,0.305-0.353,0.601-0.551,0.882   c-0.051,0.048-0.099,0.101-0.138,0.161c-0.062,0.101-0.133,0.186-0.203,0.27c-0.056,0.062-0.115,0.124-0.176,0.184   c-0.637,0.608-1.463,0.719-1.953,0.719c-0.33,0-0.664-0.048-0.94-0.134c-0.468-0.146-2.263-1.062-3.714-1.804   c-2.838-1.449-3.607-1.819-4.018-1.858c-0.578-0.059-1.817,0.181-3.832,0.745c-0.126,0.036-0.432,0.116-0.84,0.224l-0.203,0.053   c-2.113,0.558-4.055,1.075-4.584,1.271c-0.631,0.233-2.551,0.942-2.061,2.744c0.179,0.655,0.711,1.437,2.229,1.437   c0.344,0,0.73-0.04,1.15-0.119l7.3-1.374l3.123,1.851c-2.056,1.137-5.981,3.329-7.216,4.148c-1.822,1.209-2.766,3.72-2.297,6.107   c0.268,1.356,1.854,4.255,2.908,6.078c-2.27-0.244-4.508-0.479-4.893-0.497c-0.18-0.008-0.369-0.021-0.564-0.033   c-0.377-0.025-0.799-0.052-1.229-0.052c-0.749,0-3.028,0-3.279,2.13c-0.072,0.611,0.107,1.208,0.52,1.725   c0.584,0.735,1.65,1.286,2.717,1.405c0.432,0.048,1.594,0.137,3.035,0.234c-2.078,1.94-3.48,3.22-4.069,3.71l-0.167,0.138   c-0.922,0.759-2.465,2.029-2.13,3.699c0.155,0.763,0.726,1.354,1.565,1.623c0.324,0.104,0.67,0.156,1.024,0.156   c0.934,0,1.851-0.356,2.517-0.978c0.425-0.397,1.982-1.807,3.66-3.325l0.146-0.132c1.797-1.626,3.803-3.442,4.674-4.245   c0.686,0.022,1.318,0.026,1.758,0.026c1.58,0,2.715-0.471,3.37-1.4c0.979-1.387,0.409-3.199,0.284-3.548   c-1.016-2.856-2.486-6.764-3.043-8.237l6.614-3.426l1.356,4.499c0.205,0.554,0.963,2.368,2.168,2.433l0.103,0.003   c1.144,0,4.282-0.997,7.972-2.205c0.764-0.25,1.365-0.447,1.613-0.516C90.208,51.547,90.38,50.212,90.228,49.487z M77.894,53.27   c-0.155-0.162-0.479-0.662-0.68-1.207l-1.652-5.482c-0.078-0.255-0.264-0.461-0.51-0.565c-0.242-0.103-0.527-0.091-0.76,0.03   l-8.279,4.289c-0.404,0.209-0.588,0.688-0.422,1.123c0.211,0.553,2.088,5.502,3.311,8.937c0.018,0.05,0.426,1.226-0.062,1.916   c-0.301,0.426-0.942,0.642-1.907,0.642c-0.5,0-1.254-0.003-2.004-0.033l-4.799-0.502c-2.272-0.141-4.428-0.296-5.012-0.361   c-0.59-0.065-1.227-0.376-1.516-0.74c-0.146-0.185-0.151-0.318-0.141-0.401c0.031-0.276,0.171-0.546,1.457-0.546   c0.334,0,0.719,0.018,1.209,0.05c0.188,0.012,0.369,0.023,0.543,0.032c0.453,0.021,4.695,0.476,6.561,0.68   c0.021,0.002,0.043,0,0.063,0.001c0.012,0,0.022,0.004,0.034,0.004c0.008,0,0.016-0.003,0.025-0.003   c0.156-0.004,0.301-0.047,0.428-0.123c0.004-0.002,0.008-0.003,0.013-0.005c0.004-0.002,0.007-0.007,0.011-0.01   c0.09-0.058,0.169-0.129,0.233-0.215c0.009-0.011,0.015-0.022,0.022-0.033c0.059-0.083,0.102-0.177,0.129-0.279   c0.002-0.006,0.006-0.01,0.008-0.017c0.005-0.019,0.005-0.039,0.008-0.059c0.004-0.019,0.01-0.036,0.012-0.055   c0.002-0.01,0-0.02,0-0.03c0.003-0.03,0.002-0.06,0.002-0.09c0-0.029-0.002-0.058-0.005-0.086   c-0.003-0.027-0.009-0.054-0.015-0.081c-0.008-0.03-0.015-0.061-0.023-0.09c-0.009-0.024-0.02-0.048-0.029-0.072   c-0.014-0.03-0.026-0.059-0.043-0.088c-0.004-0.008-0.008-0.018-0.013-0.025c-1.261-2.064-3.352-5.8-3.595-7.04   c-0.273-1.386,0.088-3.314,1.529-4.271c1.517-1.006,7.734-4.428,8.459-4.827c0.281-0.154,0.459-0.449,0.465-0.77   s-0.162-0.623-0.439-0.786l-4.76-2.821c-0.186-0.11-0.408-0.151-0.622-0.11l-7.632,1.437c-0.336,0.063-0.621,0.095-0.848,0.095   c-0.103,0-0.439-0.009-0.471-0.124c-0.053-0.191,0.574-0.454,0.953-0.594c0.49-0.182,3.022-0.85,4.42-1.218   c0.521-0.137,0.92-0.242,1.069-0.284c1.96-0.549,2.896-0.694,3.099-0.7c0.294,0.071,2.268,1.078,3.453,1.684   c2.104,1.074,3.422,1.739,3.992,1.917c0.463,0.145,0.953,0.218,1.461,0.218c1.055,0,2.027-0.32,2.802-0.885l0.015,0.017   l0.213-0.197c0.322-0.271,0.607-0.584,0.834-0.943c0.002-0.004,0.004-0.008,0.006-0.011c0.293-0.4,0.537-0.805,0.766-1.194   c0.353-0.619,0.686-1.203,1.22-1.638c0.527-0.428,1.166-0.673,1.752-0.673c0.62,0,1.146,0.26,1.565,0.774   c0.432,0.529,0.58,1.139,0.432,1.764c-0.131,0.55-0.494,1.1-0.995,1.508c-0.524,0.427-1.144,0.636-1.847,0.874   c-0.463,0.153-1.006,0.339-1.566,0.622c-0.055,0.016-0.108,0.038-0.16,0.066c-1.876,1.016-2.822,2.072-2.893,3.23   c-0.064,1.074,1.295,5.178,1.713,6.41c0.148,0.436,0.596,0.704,1.078,0.578c0.674-0.174,6.613-1.712,7.768-2.024   c0.223-0.06,0.434-0.09,0.625-0.09c0.254,0,0.402,0.051,0.488,0.098c-0.113,0.139-0.527,0.469-1.555,0.757   c-0.276,0.078-0.871,0.272-1.694,0.542C81.113,52.497,78.661,53.205,77.894,53.27z M62.765,64.491   c-0.97,0.882-2.238,2.031-3.419,3.099l-0.047,0.042c-1.739,1.573-3.381,3.06-3.826,3.475c-0.335,0.313-0.812,0.493-1.304,0.493   c-0.17,0-0.334-0.023-0.47-0.067c-0.075-0.024-0.324-0.115-0.356-0.271c-0.123-0.613,0.941-1.49,1.515-1.962l0.173-0.142   c0.904-0.753,3.352-3.029,5.359-4.914L62.765,64.491z"/></g><text x="0" y="115" fill="#000000" font-size="5px" font-weight="bold" font-family="'Helvetica Neue', Helvetica, Arial-Unicode, Arial, Sans-serif">Created by Takao Umehara</text><text x="0" y="120" fill="#000000" font-size="5px" font-weight="bold" font-family="'Helvetica Neue', Helvetica, Arial-Unicode, Arial, Sans-serif">from the Noun Project</text></svg>