<svg xmlns="http://www.w3.org/2000/svg" xmlns:xlink="http://www.w3.org/1999/xlink" version="1.1" x="0px" y="0px" viewBox="0 0 50 62.5" enable-background="new 0 0 50 50" xml:space="preserve"><path d="M43.16,9.224c-0.904-0.916-2.104-1.664-3.374-1.664c-0.005,0-0.01,0-0.015,0c-1.246,0-2.417,0.723-3.299,1.604l-18.8,19.039  l-4.859-4.86c-0.894-0.894-2.086-1.386-3.361-1.386c-1.262,0-2.458,0.488-3.382,1.39c-1.844,1.866-1.842,4.888,0.004,6.733  l8.003,8.002c0.086,0.086,0.172,0.168,0.235,0.213c0.116,0.102,0.234,0.201,0.328,0.271c0.033,0.027,0.068,0.055,0.104,0.079  c0.874,0.72,1.927,1.074,2.975,1.074c1.188,0,2.371-0.487,3.276-1.394l22.219-22.246c0.878-0.881,1.362-2.113,1.362-3.363  C44.576,11.454,44.071,10.136,43.16,9.224z M41.798,14.725L19.58,36.941c-0.95,0.95-2.441,1.032-3.556,0.168  c-0.026-0.022-0.083-0.097-0.084-0.097c-0.001-0.002-8.451-8.378-8.451-8.378c-1.071-1.071-1.069-2.834-0.011-3.907  c1.071-1.045,2.893-1.064,3.92-0.036l6.274,6.218l20.214-20.332c0.504-0.502,1.173-1.018,1.885-1.018c0.003,0,0.006,0,0.009,0  c0.733,0,1.43,0.535,1.961,1.074c0.538,0.537,0.835,1.474,0.835,2.201C42.576,13.552,42.299,14.223,41.798,14.725z"/><line fill="none" x1="15.229" y1="36.364" x2="16.177" y2="37.219"/><text x="0" y="65" fill="#000000" font-size="5px" font-weight="bold" font-family="'Helvetica Neue', Helvetica, Arial-Unicode, Arial, Sans-serif">Created by Luboš Volkov</text><text x="0" y="70" fill="#000000" font-size="5px" font-weight="bold" font-family="'Helvetica Neue', Helvetica, Arial-Unicode, Arial, Sans-serif">from the Noun Project</text></svg>