<svg xmlns="http://www.w3.org/2000/svg" xmlns:xlink="http://www.w3.org/1999/xlink" version="1.1" x="0px" y="0px" viewBox="0 0 100 125" enable-background="new 0 0 100 100" xml:space="preserve"><path d="M88.901,23.24l-31.208-6.58c-2.47-0.518-4.892,0.777-5.964,2.954H32.05c-2.995,0-5.423,2.468-5.423,5.467v0.185  l-15.829,3.319C7.861,29.2,5.984,32.073,6.6,35.008l10.114,48.255c0.615,2.934,3.492,4.81,6.421,4.198l34.253-7.179  c0.496-0.105,0.946-0.294,1.374-0.513h6.775l11.027,2.349c2.929,0.614,5.806-1.262,6.421-4.199l10.114-48.253  C93.715,26.729,91.837,23.856,88.901,23.24z M23.002,80.711c-0.301,0.065-0.609-0.173-0.669-0.471l-9.383-44.762  c-0.063-0.298,0.133-0.597,0.436-0.662l13.241-2.775v42.3c0,2.204,1.317,4.089,3.203,4.94L23.002,80.711z M33.307,73.135  c-0.312,0-0.561-0.254-0.561-0.56V30.758v-3.914c0-0.303,0.25-0.6,0.558-0.6h16.841l-2.396,11.423l-6.592,31.445  c-0.303,1.443,0.002,2.871,0.735,4.023H33.307z M77.366,74.896c-0.061,0.301-0.369,0.537-0.669,0.474l-4.23-0.926l-6.538-1.369  l-4.713-0.989l-6.541-1.372l-6.733-1.411c-0.306-0.065-0.497-0.364-0.434-0.663l3.366-16.06L54,37.667l2.394-11.423l0.496-2.363  c0.061-0.298,0.369-0.537,0.669-0.473l14.917,3.127l13.837,2.939c0.304,0.062,0.499,0.364,0.437,0.662L77.366,74.896z"/><text x="0" y="115" fill="#000000" font-size="5px" font-weight="bold" font-family="'Helvetica Neue', Helvetica, Arial-Unicode, Arial, Sans-serif">Created by Vicons Design</text><text x="0" y="120" fill="#000000" font-size="5px" font-weight="bold" font-family="'Helvetica Neue', Helvetica, Arial-Unicode, Arial, Sans-serif">from the Noun Project</text></svg>